<svg width="1080" height="1080" viewBox="0 0 1080 1080" fill="none" xmlns="http://www.w3.org/2000/svg">
<path d="M327.1 281.273C448.254 222.372 575.579 168.461 711.296 157.305C763.516 156.127 820.938 160.284 864.004 193.13C903.533 223.273 921.148 276.075 914.698 324.512C903.949 413.14 856.791 492.482 803.323 562.054C770.521 603.423 732.344 640.461 696.039 678.191C716.74 739.205 735.499 800.288 762.199 860.574C775.791 893.351 813.448 900.627 841.604 916.149C779.12 919.475 716.497 915.733 654.014 918.089C662.752 910.12 671.212 901.874 679.673 893.628C662.405 839.37 643.923 793.775 628.146 736.607C599.713 754.796 579.602 767.165 553.11 783.311C442.289 858.703 318.223 912.615 190.897 953.152C166.278 960.774 141.243 966.872 116 972C155.807 955.577 196.792 942.203 235.697 923.494C381.747 862.861 512.194 770.284 628.84 664.54C700.27 594.83 764.557 514.726 801.659 421.247C819.135 378.285 826.555 329.64 815.112 284.183C802.629 237.617 757.414 207.405 711.643 199.852C640.005 187.171 566.911 203.524 498.74 225.352C417.809 248.358 340.623 282.658 266.211 321.533C252.688 328.601 238.749 334.907 223.908 338.718C255.531 315.019 292.841 300.536 327.1 281.273Z" fill="#6E5DC6"/>
<path d="M493.885 236.459C520.724 226.065 572.736 215.671 613.513 213.072C660.542 210.076 712.822 209.573 754.224 237.776C792.435 260.227 809.703 308.733 801.173 351.141C790.077 424.386 749.23 488.691 706.026 547.245C615.802 660.541 503.248 754.851 381.054 832.045C364.895 842.578 347.558 851.378 329.25 857.546C346.518 841.261 365.596 827.556 375.645 803.496C436.187 658.532 506.091 367.614 549.643 221.977C552.694 222.046 558.797 222.115 561.917 222.184C583.138 291.029 640.351 491.116 658.556 569.073C703.633 519.319 738.62 465.477 760.465 401.588C774.404 361.674 778.912 311.782 749.369 277.551C712.406 230.846 652.522 226.065 592.709 226.065C551.099 226.065 532.895 228.664 493.885 236.459ZM542.985 358.764C512.055 447.53 471.624 678.281 440.902 767.047C466.631 758.524 486.326 739.398 506.23 721.936C532.999 697.822 565.281 671.594 589.206 644.431C598.742 633.605 597.948 621.777 596.141 610.892C589.865 573.092 554.531 394.97 542.985 358.764Z" fill="url(#paint0_linear_7383_2)"/>
<defs>
<linearGradient id="paint0_linear_7383_2" x1="566.28" y1="211.701" x2="566.28" y2="857.546" gradientUnits="userSpaceOnUse">
<stop stop-color="#52D5FF"/>
<stop offset="1" stop-color="#9D7AFF"/>
</linearGradient>
</defs>
</svg>
