<svg width="44" height="44" viewBox="0 0 44 44" fill="none" xmlns="http://www.w3.org/2000/svg">
<rect x="0.5" y="0.5" width="43" height="43" rx="7.5" fill="#F9F7FF"/>
<rect x="0.5" y="0.5" width="43" height="43" rx="7.5" stroke="#9373EE" stroke-dasharray="6 6"/>
<path fill-rule="evenodd" clip-rule="evenodd" d="M22 16C22.4142 16 22.75 16.3358 22.75 16.75V21.25H27.25C27.6642 21.25 28 21.5858 28 22C28 22.4142 27.6642 22.75 27.25 22.75H22.75V27.25C22.75 27.6642 22.4142 28 22 28C21.5858 28 21.25 27.6642 21.25 27.25V22.75H16.75C16.3358 22.75 16 22.4142 16 22C16 21.5858 16.3358 21.25 16.75 21.25H21.25V16.75C21.25 16.3358 21.5858 16 22 16Z" fill="#9373EE"/>
</svg>
