<svg width="23" height="21" viewBox="0 0 23 21" fill="none" xmlns="http://www.w3.org/2000/svg">
<path d="M11.3008 11.5H11.3108M15.3008 5.5V3.5C15.3008 2.96957 15.0901 2.46086 14.715 2.08579C14.3399 1.71071 13.8312 1.5 13.3008 1.5H9.30078C8.77035 1.5 8.26164 1.71071 7.88657 2.08579C7.5115 2.46086 7.30078 2.96957 7.30078 3.5V5.5M21.3008 12.5C18.3336 14.459 14.8563 15.5033 11.3008 15.5033C7.74523 15.5033 4.26799 14.459 1.30078 12.5" stroke="#9373EE" stroke-width="2" stroke-linecap="round" stroke-linejoin="round"/>
<path d="M19.3008 5.5H3.30078C2.19621 5.5 1.30078 6.39543 1.30078 7.5V17.5C1.30078 18.6046 2.19621 19.5 3.30078 19.5H19.3008C20.4054 19.5 21.3008 18.6046 21.3008 17.5V7.5C21.3008 6.39543 20.4054 5.5 19.3008 5.5Z" stroke="#9373EE" stroke-width="2" stroke-linecap="round" stroke-linejoin="round"/>
</svg>
