<svg width="42" height="42" viewBox="0 0 42 42" fill="none" xmlns="http://www.w3.org/2000/svg">
<rect width="42" height="42" rx="6" fill="#9373EE"/>
<path d="M21.375 11.25C16.6192 11.25 12.75 15.1192 12.75 19.875C12.75 23.3618 14.8343 26.3655 17.8185 27.7238C17.7351 27.1289 17.6755 26.5309 17.64 25.9313C15.6098 24.6728 14.25 22.4325 14.25 19.875C14.25 15.9465 17.4465 12.75 21.375 12.75C25.3035 12.75 28.5 15.9465 28.5 19.875C28.5 22.4333 27.1402 24.6735 25.11 25.9305C25.0745 26.5301 25.0149 27.1281 24.9315 27.723C27.9165 26.3663 30 23.3625 30 19.875C30 15.1192 26.1308 11.25 21.375 11.25ZM21.375 14.25C18.273 14.25 15.75 16.773 15.75 19.875C15.7504 20.7144 15.939 21.543 16.3017 22.2999C16.6645 23.0568 17.1923 23.7229 17.8463 24.249C18.0251 23.7718 18.3196 23.3466 18.7035 23.0115C18.2484 22.6253 17.8826 22.1448 17.6316 21.6032C17.3807 21.0616 17.2504 20.4719 17.25 19.875C17.25 17.601 19.101 15.75 21.375 15.75C23.649 15.75 25.5 17.601 25.5 19.875C25.4996 20.4719 25.3693 21.0616 25.1184 21.6032C24.8674 22.1448 24.5016 22.6253 24.0465 23.0115C24.4304 23.3466 24.7249 23.7718 24.9037 24.249C25.5577 23.7229 26.0855 23.0568 26.4483 22.2999C26.811 21.543 26.9996 20.7144 27 19.875C27 16.773 24.477 14.25 21.375 14.25ZM21.375 17.25C19.9275 17.25 18.75 18.4275 18.75 19.875C18.75 21.3225 19.9275 22.5 21.375 22.5C22.8225 22.5 24 21.3225 24 19.875C24 18.4275 22.8225 17.25 21.375 17.25ZM21.375 18.75C21.9953 18.75 22.5 19.2547 22.5 19.875C22.5 20.4953 21.9953 21 21.375 21C20.7547 21 20.25 20.4953 20.25 19.875C20.25 19.2547 20.7547 18.75 21.375 18.75ZM21.375 23.25C19.0058 23.25 18.75 24.807 18.75 25.4767C18.75 26.7097 19.1527 29.1892 19.3725 30.1305C19.47 30.543 19.8585 31.5 21.375 31.5C22.8915 31.5 23.28 30.543 23.3775 30.1305C23.5973 29.1907 24 26.7097 24 25.4767C24 24.807 23.7442 23.25 21.375 23.25ZM21.375 24.75C22.5 24.75 22.5 25.17 22.5 25.4767C22.5 26.478 22.1475 28.7992 21.9172 29.7877C21.8985 29.8665 21.867 30 21.375 30C20.883 30 20.8515 29.8672 20.8328 29.7892C20.6033 28.8037 20.25 26.4787 20.25 25.4767C20.25 25.1692 20.25 24.75 21.375 24.75Z" fill="#FCFCFD"/>
</svg>
