<svg width="84" height="113" viewBox="0 0 84 113" fill="none" xmlns="http://www.w3.org/2000/svg">
<path d="M37.6945 71.8441C47.1359 99.0032 70.9229 178.589 68.3808 184.309C66.7811 187.916 62.9813 180.294 57.9283 167.116C56.3352 162.957 54.6116 158.246 52.8007 153.158C49.9375 145.139 46.8401 136.188 43.6183 127C39.8648 116.306 36.7927 106.375 34.3436 97.8124C34.025 96.6919 33.7154 95.6041 33.4154 94.5316C33.0114 93.0809 32.6261 91.6783 32.2592 90.3237C30.4286 83.5438 29.0748 77.9723 28.1696 74.0336C27.2031 69.8524 26.7425 67.5123 26.7425 67.5123C26.7425 67.5123 29.4761 52.7864 34.6437 63.7857C35.2898 65.1613 36.3454 67.9685 37.6895 71.8454L37.6945 71.8441Z" fill="url(#paint0_linear_4405_4638)"/>
<path style="mix-blend-mode:multiply" opacity="0.4" d="M37.6184 71.8105C38.5629 74.5189 39.6442 77.7438 40.8357 81.3687C41.4832 83.3498 42.1639 85.4514 42.8718 87.6517C53.8063 121.766 70.5314 179.471 68.3821 184.313C66.7796 187.921 62.9715 180.297 57.9073 167.114C71.2133 180.62 43.8804 90.8075 35.8194 88.974C34.1736 88.5984 32.9407 90.3473 33.3391 94.508C32.9343 93.057 32.548 91.6539 32.1803 90.2989C32.1381 90.1455 32.0973 89.9975 32.0551 89.844C31.4736 87.693 30.9434 85.6696 30.461 83.7806C29.4659 79.8929 28.6754 76.5922 28.0761 74.0053L37.6199 71.816L37.6184 71.8105Z" fill="url(#paint1_linear_4405_4638)"/>
<path style="mix-blend-mode:multiply" opacity="0.4" d="M41.3668 81.4339C42.0656 83.4794 42.8003 85.6494 43.5645 87.9212C41.9963 86.7465 39.3565 85.3711 36.3918 86.3197C33.905 87.1193 32.7257 88.7401 32.1631 90.1046C31.5328 87.8844 30.9575 85.7961 30.4337 83.8466L32.4385 81.6145L41.3615 81.4352L41.3668 81.4339Z" fill="url(#paint2_linear_4405_4638)"/>
<path d="M27.2494 51.1492C22.9307 52.8237 15.2607 52.2653 10.4719 41.2743C9.94136 40.0587 9.61619 38.8149 9.45602 37.5591C9.24002 35.8893 9.30742 34.1895 9.54874 32.4695C10.5958 25.0278 14.9212 17.3282 13.5176 10.726C13.2947 9.66442 12.9236 8.63441 12.366 7.63965C12.366 7.63965 12.4981 7.68951 12.7433 7.78212C15.0275 8.6496 27.1337 13.5214 32.8596 21.3678C40.1005 31.2869 41.6342 45.5625 27.2494 51.1492Z" fill="url(#paint3_linear_4405_4638)"/>
<path style="mix-blend-mode:multiply" opacity="0.4" d="M27.3738 51.2263C23.0954 52.8766 15.4713 52.268 10.6335 41.2243C10.0976 40.0028 9.76548 38.7544 9.59721 37.4951C11.6342 39.5784 15.4678 42.062 20.3353 39.1727C36.1443 29.8045 19.4189 11.687 12.6461 7.679C14.9217 8.56282 26.9846 13.5218 32.7304 21.4206C39.9964 31.4061 41.6242 45.7202 27.3738 51.2263Z" fill="url(#paint4_linear_4405_4638)"/>
<path style="mix-blend-mode:multiply" opacity="0.4" d="M25.8814 45.7131C25.8814 45.7131 19.9268 46.4058 16.4718 41.987C13.0167 37.5683 14.5501 28.6348 16.5606 21.7647C16.5606 21.7647 15.8872 30.7533 17.3668 35.1856C19.329 41.0644 25.8814 45.7131 25.8814 45.7131Z" fill="url(#paint5_linear_4405_4638)"/>
<path style="mix-blend-mode:multiply" opacity="0.4" d="M25.2648 44.6536C25.5771 44.4445 29.3175 42.1407 31.7182 36.9438C33.6956 32.6517 31.5155 25.954 28.9298 22.268C28.9298 22.268 38.9238 32.9833 33.5817 39.8793C29.9124 44.6109 25.2648 44.6536 25.2648 44.6536Z" fill="url(#paint6_linear_4405_4638)"/>
<path style="mix-blend-mode:multiply" opacity="0.4" d="M26.1952 47.6969C26.1952 47.6969 18.5909 49.1511 20.9272 43.7069C23.2634 38.2627 37.2515 43.0525 26.1952 47.6969Z" fill="url(#paint7_linear_4405_4638)"/>
<path d="M45.8782 79.8078C47.7646 85.8744 43.4807 87.1997 43.4807 87.1997C43.4807 87.1997 42.4274 84.0228 37.2708 85.2502C32.1091 86.479 32.4367 89.7634 32.4367 89.7634C32.4367 89.7634 29.6128 91.4161 27.0579 86.2297C26.5124 85.1254 26.2425 84.1701 26.1573 83.3572C25.8392 80.3427 28.0135 79.2042 28.0135 79.2042C27.7684 78.0414 27.4993 76.8136 27.2229 75.5403C26.907 74.0877 26.5755 72.5798 26.2382 71.032C24.5353 63.2735 22.6263 54.6085 21.4596 48.0987C21.3768 47.6285 21.2971 47.1693 21.2205 46.7212C21.1825 46.4882 21.1408 46.2621 21.1043 46.0346C21.0965 46.007 21.0939 45.9781 21.0913 45.9492C20.4985 41.8444 26.8773 40.7324 28.5676 43.1142C28.6335 43.2099 28.6943 43.3069 28.7379 43.4024C29.22 44.3807 29.7203 45.4432 30.2311 46.5622C30.2893 46.6895 30.3475 46.8168 30.4057 46.944C30.787 47.7822 31.1674 48.6562 31.554 49.5523C31.6153 49.6906 31.6714 49.8302 31.7343 49.9741C32.0081 50.6088 32.2799 51.2559 32.5532 51.9085C32.6899 52.2348 32.8266 52.5611 32.9596 52.8942C33.0287 53.0601 33.0978 53.226 33.1669 53.3919C34.5643 56.7833 35.9306 60.3009 37.1416 63.4851C37.1686 63.5611 37.2024 63.6413 37.2294 63.7173C37.4321 64.2576 37.6385 64.7912 37.8297 65.3107C37.8822 65.4572 37.9415 65.6079 37.994 65.7543C38.0309 65.8456 38.061 65.9326 38.0964 66.0183C38.1442 66.1482 38.192 66.2781 38.2383 66.4025C38.6785 67.5868 39.0901 68.6895 39.4566 69.6913C39.4836 69.7673 39.5091 69.8378 39.5361 69.9138C39.7242 70.4223 39.8979 70.899 40.0585 71.3495C40.1063 71.4794 40.1525 71.6037 40.1921 71.7239C40.2383 71.8483 40.2763 71.9629 40.321 72.0818C40.3381 72.1425 40.3605 72.2019 40.3813 72.2558C40.4244 72.3692 40.4608 72.4783 40.5024 72.5861C40.5039 72.5916 40.5071 72.6027 40.5086 72.6082C40.5388 72.6952 40.5689 72.7823 40.5975 72.8638C40.6261 72.9453 40.6562 73.0323 40.6833 73.1083C40.7103 73.1843 40.7373 73.2603 40.7628 73.3308C40.8059 73.4441 40.8423 73.5532 40.8772 73.6568C40.8928 73.712 40.9136 73.7659 40.9328 73.8143C40.9359 73.8254 40.939 73.8364 40.9406 73.8419C41.0056 74.0326 41.0695 74.1998 41.122 74.3463C41.1236 74.3518 41.1251 74.3573 41.1267 74.3628C41.136 74.396 41.1438 74.4236 41.1568 74.4499C41.1646 74.4775 41.1724 74.5051 41.1854 74.5314C41.1963 74.57 41.2124 74.6074 41.2218 74.6405C41.2436 74.7178 41.2712 74.7759 41.292 74.8298C41.2982 74.8519 41.3045 74.874 41.3091 74.8906C41.3201 74.9292 41.3279 74.9568 41.3408 74.9831C41.344 74.9942 41.3471 75.0052 41.3486 75.0107C41.3486 75.0107 41.3502 75.0162 41.3518 75.0218C41.3549 75.0328 41.358 75.0439 41.3596 75.0494C41.3627 75.0604 41.3642 75.0659 41.3642 75.0659C41.4483 75.0683 44.4208 75.2007 45.8574 79.8131L45.8782 79.8078Z" fill="url(#paint8_linear_4405_4638)"/>
<path style="mix-blend-mode:overlay" opacity="0.3" d="M52.7055 153.237C49.8208 145.209 46.6997 136.247 43.4534 127.048C39.6716 116.342 36.5749 106.399 34.1057 97.8274C34.2582 95.595 34.7709 93.71 36.0334 93.5413C40.4068 92.9534 64.7073 162.811 52.7105 153.236L52.7055 153.237Z" fill="url(#paint9_linear_4405_4638)"/>
<path style="mix-blend-mode:multiply" opacity="0.4" d="M30.2398 46.624C30.2981 46.7515 30.3565 46.8791 30.4148 47.0066C30.7972 47.8464 31.1787 48.7221 31.5666 49.6198C31.6281 49.7584 31.6844 49.8982 31.7475 50.0423C32.0223 50.6782 32.295 51.3265 32.5694 51.9803C32.7065 52.3072 32.8437 52.6341 32.9773 52.9678C33.0467 53.134 33.1161 53.3002 33.1854 53.4664C34.5882 56.8637 35.9611 60.3871 37.1782 63.5764C37.2054 63.6525 37.2393 63.7329 37.2665 63.809C37.4702 64.3502 37.6775 64.8845 37.8699 65.4049C37.9227 65.5516 37.9822 65.7025 38.035 65.8492C38.0721 65.9406 38.1024 66.0277 38.1379 66.1136C38.186 66.2437 38.2341 66.3738 38.2806 66.4984C38.7232 67.6845 39.137 68.789 39.5055 69.7924C39.5327 69.8685 39.5584 69.939 39.5856 70.0151C39.7747 70.5245 39.9493 71.0019 40.1109 71.453C40.159 71.5831 40.2055 71.7077 40.2453 71.828C40.2918 71.9525 40.3301 72.0673 40.375 72.1864C40.3923 72.2472 40.4183 72.2999 40.4357 72.3607C40.479 72.4742 40.5157 72.5835 40.5575 72.6915C40.5591 72.697 40.5622 72.7081 40.5638 72.7136C40.5941 72.8007 40.6245 72.8879 40.6532 72.9695C40.682 73.0512 40.7124 73.1383 40.7396 73.2144C40.7668 73.2905 40.7939 73.3666 40.8196 73.4372C40.8629 73.5507 40.8996 73.66 40.9346 73.7637C40.9504 73.819 40.9764 73.8717 40.9906 73.9215C40.9938 73.9325 40.9969 73.9436 40.9985 73.9491C41.069 74.1387 41.1282 74.3075 41.181 74.4542C41.1825 74.4597 41.1841 74.4652 41.1857 74.4708C41.1952 74.5039 41.203 74.5316 41.216 74.5579C41.2239 74.5856 41.2318 74.6132 41.2448 74.6396C41.2559 74.6783 41.272 74.7157 41.2815 74.7488C41.3035 74.8262 41.3311 74.8845 41.352 74.9384C41.3583 74.9606 41.3646 74.9827 41.3694 74.9993C41.3804 75.038 41.3883 75.0656 41.4013 75.0919C41.4044 75.103 41.4076 75.1141 41.4092 75.1196C41.4092 75.1196 41.4107 75.1251 41.4123 75.1306C41.4155 75.1417 41.4186 75.1528 41.4202 75.1583C41.4233 75.1693 41.4249 75.1749 41.4249 75.1749C32.1915 75.6158 28.2032 79.2449 28.2032 79.2449C27.9538 78.0812 27.6804 76.8524 27.3995 75.5782C30.4051 76.3085 33.1581 74.2644 34.3009 71.7191C35.9252 68.0869 32.4611 47.8422 25.5736 45.2927C23.8289 44.6478 21.9405 44.6552 21.2975 46.7368C21.2585 46.5037 21.216 46.2774 21.1786 46.0498C21.1707 46.0222 21.1679 45.9933 21.1652 45.9643C20.5549 41.8579 26.864 40.7787 28.551 43.1683C28.6169 43.2643 28.6776 43.3616 28.7214 43.4573C29.2042 44.4377 29.7057 45.5024 30.2177 46.6237L30.2398 46.624Z" fill="url(#paint10_linear_4405_4638)"/>
<path style="mix-blend-mode:multiply" opacity="0.4" d="M45.7882 79.6201C47.7646 85.8626 43.3888 87.1955 43.3888 87.1955C43.3888 87.1955 42.2868 83.926 37.0169 85.1526C31.7417 86.3806 32.1016 89.7557 32.1016 89.7557C32.1016 89.7557 29.2229 91.4344 26.5685 86.0914C26.0018 84.9537 25.7184 83.9709 25.6251 83.1355C26.2364 85.6686 27.8194 87.4545 28.71 86.1306C30.3972 83.6099 34.8162 81.225 39.0967 81.2554C42.7059 81.2825 40.5127 76.1596 38.1279 74.9813C39.069 74.8566 40.0815 74.7629 41.1581 74.7141C41.2441 74.717 44.2883 74.8726 45.7935 79.6188L45.7882 79.6201Z" fill="url(#paint11_linear_4405_4638)"/>
<path style="mix-blend-mode:overlay" opacity="0.3" d="M33.0693 71.6652C30.8402 76.2543 27.8071 72.983 26.2944 71.11C24.5846 63.3673 22.6679 54.7199 21.4911 48.2243C21.8402 47.5863 22.4273 47.1714 23.3537 47.1844C27.1407 47.2336 35.139 67.4001 33.0693 71.6652Z" fill="url(#paint12_linear_4405_4638)"/>
<path style="mix-blend-mode:overlay" opacity="0.3" d="M27.1353 81.3257C26.8925 83.6289 28.227 83.921 33.1359 81.6767C37.8826 79.5038 38.4488 77.2731 36.844 76.5758C34.4955 75.5549 27.4218 78.6367 27.1353 81.3257Z" fill="url(#paint13_linear_4405_4638)"/>
<path style="mix-blend-mode:screen" d="M23.9536 49.0999C23.3579 51.234 29.6124 74.6798 30.015 73.506C30.8148 71.1774 24.7721 46.1736 23.9536 49.0999Z" fill="url(#paint14_linear_4405_4638)"/>
<path style="mix-blend-mode:screen" d="M29.6134 79.7482C29.1362 81.0424 32.0906 80.9713 32.9 79.1475C33.704 77.3249 29.9857 78.7434 29.6134 79.7482Z" fill="url(#paint15_linear_4405_4638)"/>
<path style="mix-blend-mode:overlay" opacity="0.3" d="M13.3044 11.0775C13.3044 11.0775 16.6098 18.4872 13.5847 25.8615C10.5648 33.2345 12.5224 37.9795 12.5224 37.9795C10.902 36.8647 10.0091 34.832 9.53155 32.6947C10.521 25.2938 14.718 17.6541 13.3044 11.0775Z" fill="url(#paint16_linear_4405_4638)"/>
<path style="mix-blend-mode:overlay" opacity="0.3" d="M14.2481 9.73169C14.2481 9.73169 19.1756 19.9635 18.7355 25.5141C18.0956 33.5634 20.8862 36.8736 20.8862 36.8736C20.8862 36.8736 23.3385 34.7081 23.8801 29.2673C24.559 22.4584 19.4087 14.1414 14.2531 9.73039L14.2481 9.73169Z" fill="url(#paint17_linear_4405_4638)"/>
<defs>
<linearGradient id="paint0_linear_4405_4638" x1="39.5325" y1="126.965" x2="59.0565" y2="118.21" gradientUnits="userSpaceOnUse">
<stop stop-color="#6B254C"/>
<stop offset="0.99" stop-color="#8A3A2C"/>
</linearGradient>
<linearGradient id="paint1_linear_4405_4638" x1="63.5602" y1="122.627" x2="50.3388" y2="128.261" gradientUnits="userSpaceOnUse">
<stop stop-color="white"/>
<stop offset="0.02" stop-color="#F7E9FA"/>
<stop offset="0.07" stop-color="#E9C0F1"/>
<stop offset="0.12" stop-color="#DD9BE8"/>
<stop offset="0.17" stop-color="#D27AE1"/>
<stop offset="0.23" stop-color="#C95FDB"/>
<stop offset="0.3" stop-color="#C149D6"/>
<stop offset="0.38" stop-color="#BB38D2"/>
<stop offset="0.48" stop-color="#B72CCF"/>
<stop offset="0.62" stop-color="#B525CE"/>
<stop offset="1" stop-color="#B524CE"/>
</linearGradient>
<linearGradient id="paint2_linear_4405_4638" x1="39.065" y1="92.5663" x2="36.8697" y2="85.3518" gradientUnits="userSpaceOnUse">
<stop stop-color="white"/>
<stop offset="0.02" stop-color="#F7E9FA"/>
<stop offset="0.07" stop-color="#E9C0F1"/>
<stop offset="0.12" stop-color="#DD9BE8"/>
<stop offset="0.17" stop-color="#D27AE1"/>
<stop offset="0.23" stop-color="#C95FDB"/>
<stop offset="0.3" stop-color="#C149D6"/>
<stop offset="0.38" stop-color="#BB38D2"/>
<stop offset="0.48" stop-color="#B72CCF"/>
<stop offset="0.62" stop-color="#B525CE"/>
<stop offset="1" stop-color="#B524CE"/>
</linearGradient>
<linearGradient id="paint3_linear_4405_4638" x1="46.6916" y1="51.9448" x2="5.91672" y2="23.794" gradientUnits="userSpaceOnUse">
<stop stop-color="#6B254C"/>
<stop offset="0.99" stop-color="#8A3A2C"/>
</linearGradient>
<linearGradient id="paint4_linear_4405_4638" x1="41.3908" y1="42.3567" x2="19.8676" y2="33.4116" gradientUnits="userSpaceOnUse">
<stop stop-color="white"/>
<stop offset="0.12" stop-color="#F0D4F5"/>
<stop offset="0.29" stop-color="#DE9FE9"/>
<stop offset="0.45" stop-color="#CF73DF"/>
<stop offset="0.61" stop-color="#C450D8"/>
<stop offset="0.75" stop-color="#BB38D2"/>
<stop offset="0.89" stop-color="#B629CF"/>
<stop offset="1" stop-color="#B524CE"/>
</linearGradient>
<linearGradient id="paint5_linear_4405_4638" x1="4.42453" y1="18.4354" x2="29.6125" y2="43.5619" gradientUnits="userSpaceOnUse">
<stop stop-color="white"/>
<stop offset="0.02" stop-color="#F7E9FA"/>
<stop offset="0.07" stop-color="#E9C0F1"/>
<stop offset="0.12" stop-color="#DD9BE8"/>
<stop offset="0.17" stop-color="#D27AE1"/>
<stop offset="0.23" stop-color="#C95FDB"/>
<stop offset="0.3" stop-color="#C149D6"/>
<stop offset="0.38" stop-color="#BB38D2"/>
<stop offset="0.48" stop-color="#B72CCF"/>
<stop offset="0.62" stop-color="#B525CE"/>
<stop offset="1" stop-color="#B524CE"/>
</linearGradient>
<linearGradient id="paint6_linear_4405_4638" x1="36.2772" y1="22.4895" x2="22.3051" y2="42.8189" gradientUnits="userSpaceOnUse">
<stop stop-color="white"/>
<stop offset="0.02" stop-color="#F7E9FA"/>
<stop offset="0.07" stop-color="#E9C0F1"/>
<stop offset="0.12" stop-color="#DD9BE8"/>
<stop offset="0.17" stop-color="#D27AE1"/>
<stop offset="0.23" stop-color="#C95FDB"/>
<stop offset="0.3" stop-color="#C149D6"/>
<stop offset="0.38" stop-color="#BB38D2"/>
<stop offset="0.48" stop-color="#B72CCF"/>
<stop offset="0.62" stop-color="#B525CE"/>
<stop offset="1" stop-color="#B524CE"/>
</linearGradient>
<linearGradient id="paint7_linear_4405_4638" x1="26.3179" y1="49.8778" x2="25.6867" y2="44.4972" gradientUnits="userSpaceOnUse">
<stop stop-color="white"/>
<stop offset="0.02" stop-color="#F7E9FA"/>
<stop offset="0.07" stop-color="#E9C0F1"/>
<stop offset="0.12" stop-color="#DD9BE8"/>
<stop offset="0.17" stop-color="#D27AE1"/>
<stop offset="0.23" stop-color="#C95FDB"/>
<stop offset="0.3" stop-color="#C149D6"/>
<stop offset="0.38" stop-color="#BB38D2"/>
<stop offset="0.48" stop-color="#B72CCF"/>
<stop offset="0.62" stop-color="#B525CE"/>
<stop offset="1" stop-color="#B524CE"/>
</linearGradient>
<linearGradient id="paint8_linear_4405_4638" x1="19.9896" y1="70.9174" x2="38.0493" y2="62.5892" gradientUnits="userSpaceOnUse">
<stop stop-color="#FFD669"/>
<stop offset="0.88" stop-color="#FFAE4B"/>
<stop offset="0.99" stop-color="#FFA947"/>
</linearGradient>
<linearGradient id="paint9_linear_4405_4638" x1="58.6345" y1="159.105" x2="36.6256" y2="98.0778" gradientUnits="userSpaceOnUse">
<stop stop-color="white"/>
<stop offset="0.54" stop-color="#FFF7D7"/>
<stop offset="1" stop-color="#FFF0B3"/>
</linearGradient>
<linearGradient id="paint10_linear_4405_4638" x1="50.2108" y1="56.8732" x2="20.9478" y2="62.8194" gradientUnits="userSpaceOnUse">
<stop stop-color="white"/>
<stop offset="0.12" stop-color="#F0D4F5"/>
<stop offset="0.29" stop-color="#DE9FE9"/>
<stop offset="0.45" stop-color="#CF73DF"/>
<stop offset="0.61" stop-color="#C450D8"/>
<stop offset="0.75" stop-color="#BB38D2"/>
<stop offset="0.89" stop-color="#B629CF"/>
<stop offset="1" stop-color="#B524CE"/>
</linearGradient>
<linearGradient id="paint11_linear_4405_4638" x1="63.7654" y1="77.9782" x2="21.0195" y2="86.7861" gradientUnits="userSpaceOnUse">
<stop stop-color="white"/>
<stop offset="0.12" stop-color="#F0D4F5"/>
<stop offset="0.29" stop-color="#DE9FE9"/>
<stop offset="0.45" stop-color="#CF73DF"/>
<stop offset="0.61" stop-color="#C450D8"/>
<stop offset="0.75" stop-color="#BB38D2"/>
<stop offset="0.89" stop-color="#B629CF"/>
<stop offset="1" stop-color="#B524CE"/>
</linearGradient>
<linearGradient id="paint12_linear_4405_4638" x1="32.5465" y1="78.6846" x2="24.8018" y2="48.3105" gradientUnits="userSpaceOnUse">
<stop stop-color="white"/>
<stop offset="0.54" stop-color="#FFF7D7"/>
<stop offset="1" stop-color="#FFF0B3"/>
</linearGradient>
<linearGradient id="paint13_linear_4405_4638" x1="34.9169" y1="83.4318" x2="30.754" y2="77.957" gradientUnits="userSpaceOnUse">
<stop stop-color="white"/>
<stop offset="0.54" stop-color="#FFF7D7"/>
<stop offset="1" stop-color="#FFF0B3"/>
</linearGradient>
<linearGradient id="paint14_linear_4405_4638" x1="32.7241" y1="76.7746" x2="22.0674" y2="47.4491" gradientUnits="userSpaceOnUse">
<stop stop-color="white"/>
<stop offset="0.54" stop-color="#FFF7D7"/>
<stop offset="1" stop-color="#FFF0B3"/>
</linearGradient>
<linearGradient id="paint15_linear_4405_4638" x1="31.8565" y1="82.0218" x2="31.2226" y2="78.2091" gradientUnits="userSpaceOnUse">
<stop stop-color="white"/>
<stop offset="0.54" stop-color="#FFF7D7"/>
<stop offset="1" stop-color="#FFF0B3"/>
</linearGradient>
<linearGradient id="paint16_linear_4405_4638" x1="16.1245" y1="46.1094" x2="11.5444" y2="12.5945" gradientUnits="userSpaceOnUse">
<stop stop-color="white"/>
<stop offset="0.02" stop-color="#FFFEFC"/>
<stop offset="0.29" stop-color="#FFF8DC"/>
<stop offset="0.54" stop-color="#FFF3C5"/>
<stop offset="0.79" stop-color="#FFF0B7"/>
<stop offset="1" stop-color="#FFF0B3"/>
</linearGradient>
<linearGradient id="paint17_linear_4405_4638" x1="26.3015" y1="41.7583" x2="14.4986" y2="9.62085" gradientUnits="userSpaceOnUse">
<stop stop-color="white"/>
<stop offset="0.22" stop-color="#FFFAE7"/>
<stop offset="0.53" stop-color="#FFF4CA"/>
<stop offset="0.8" stop-color="#FFF1B9"/>
<stop offset="1" stop-color="#FFF0B3"/>
</linearGradient>
</defs>
</svg>
