<svg width="77" height="111" viewBox="0 0 77 111" fill="none" xmlns="http://www.w3.org/2000/svg">
<path d="M14.0136 2.87597C14.0136 2.87597 17.8386 15.8357 22.2367 28.7215C23.512 32.4655 24.8286 36.8978 26.3696 40.9364C28.6379 46.8764 31.3956 51.9592 35.2402 52.7197L37.3142 60.9731L64.4472 168.969L67.7149 181.981C67.7149 181.981 66.9148 183.672 65.3126 184.938C64.3822 185.676 63.1829 186.267 61.7149 186.293C61.3957 186.3 61.069 186.28 60.7232 186.23C59.998 186.126 59.2186 185.884 58.3845 185.462C57.1062 181.349 55.6457 176.59 54.0591 171.37C43.3727 136.228 26.9329 80.2448 21.2044 60.7088C19.9015 56.267 19.1569 53.7061 19.1569 53.7061C19.1569 53.7061 24.8633 52.7558 18.4195 28.8765C17.6162 25.9021 16.943 23.2637 16.3859 20.9299C13.7812 10.0418 13.5826 5.65702 13.7491 3.93849C13.8312 3.06485 14.01 2.88278 14.01 2.88278L14.0136 2.87597Z" fill="url(#paint0_linear_4405_4720)"/>
<path style="mix-blend-mode:screen" opacity="0.3" d="M16.2447 21.1064C21.6763 31.3019 26.0663 58.8785 26.0663 58.8785C26.0663 58.8785 49.7045 145.128 58.4261 176.705C59.6294 181.065 60.5492 184.379 61.0825 186.286C60.0976 186.306 58.9959 186.076 57.7738 185.46C56.5086 181.352 55.0632 176.598 53.4932 171.385C42.913 136.285 26.6468 80.3674 20.9788 60.8542C19.7739 56.6887 19.0471 54.1869 18.9604 53.887C18.9544 53.8651 18.9529 53.8596 18.9529 53.8596C18.9529 53.8596 24.6202 52.9044 18.2505 29.0454C17.456 26.0744 16.7969 23.4431 16.2396 21.1077L16.2447 21.1064Z" fill="url(#paint1_linear_4405_4720)"/>
<path style="mix-blend-mode:screen" opacity="0.5" d="M18.8545 53.8782C18.9433 54.1658 22.8048 52.6564 23.3741 56.4917C25.4621 70.4564 34.7178 104.162 42.9804 131.333C48.7985 150.468 60.465 184.381 61.0037 186.287C60.0185 186.307 58.9166 186.076 57.6941 185.46C56.4281 181.352 54.9818 176.598 53.4107 171.384C42.8234 136.282 26.5461 80.3604 20.8743 60.8459C19.6686 56.6801 18.9412 54.1781 18.8545 53.8782Z" fill="url(#paint2_linear_4405_4720)"/>
<path d="M14.2205 2.88401C14.2205 2.88401 16.2439 9.60602 19.056 18.1912C20.158 21.5555 21.3779 25.2024 22.6463 28.8427C25.8806 38.1398 29.3571 51.6595 35.9786 52.9447C35.9786 52.9447 37.7317 63.1535 32.5808 58.1027C31.1534 65.6582 26.8339 58.989 26.8339 58.989C23.5 66.7924 19.7096 54.6459 19.5016 53.9616C19.4954 53.9395 19.4939 53.934 19.4939 53.934C19.4939 53.934 25.3393 52.9811 18.7363 28.9916C17.9096 25.9932 17.2215 23.3311 16.642 20.9775C16.2422 19.3273 15.896 17.8285 15.5986 16.4648C12.9675 4.39228 14.1828 2.9291 14.2205 2.88401Z" fill="url(#paint3_linear_4405_4720)"/>
<path d="M14.5045 3.04741C14.5045 3.04741 16.5091 9.75591 19.3 18.3225L15.8765 16.6051C15.8558 16.5103 15.835 16.4156 15.8143 16.3208C14.5617 10.4897 14.2217 7.19078 14.2007 5.3408C14.1728 3.38654 14.5045 3.04741 14.5045 3.04741Z" fill="url(#paint4_linear_4405_4720)"/>
<path style="mix-blend-mode:multiply" opacity="0.4" d="M14.5916 2.88295C14.5916 2.88295 16.5447 9.56829 19.2649 18.105C20.329 21.4509 21.5071 25.0778 22.7321 28.698C25.8557 37.9439 29.2089 51.3906 35.6259 52.6614L37.677 60.9057L64.5075 168.778L67.7404 181.781C67.7404 181.781 66.9431 183.471 65.3491 184.738C59.1082 161.578 32.3208 57.7984 32.3208 57.7984C32.3208 57.7984 21.1131 35.443 14.5916 2.88295Z" fill="url(#paint5_linear_4405_4720)"/>
<path style="mix-blend-mode:screen" opacity="0.3" d="M16.3058 21.0719C20.809 28.2728 26.4511 59.0165 26.4511 59.0165C23.2002 66.7964 19.4336 54.6677 19.2269 53.9844C19.2207 53.9624 19.2192 53.9569 19.2192 53.9569C19.2192 53.9569 24.9579 53.0254 18.3864 29.0742C17.5637 26.0806 16.8784 23.4228 16.3007 21.0732L16.3058 21.0719Z" fill="url(#paint6_linear_4405_4720)"/>
<path style="mix-blend-mode:screen" opacity="0.3" d="M14.1556 5.36767C14.8563 7.78632 16.3664 13.3721 16.6106 15.1445C16.7788 16.3659 16.2904 16.4928 15.772 16.3334C14.5232 10.509 14.1804 7.21473 14.1556 5.36767Z" fill="url(#paint7_linear_4405_4720)"/>
<defs>
<linearGradient id="paint0_linear_4405_4720" x1="21.4086" y1="99.6001" x2="53.4771" y2="89.8322" gradientUnits="userSpaceOnUse">
<stop stop-color="#FC9800"/>
<stop offset="0.11" stop-color="#EF8912"/>
<stop offset="0.29" stop-color="#DF7728"/>
<stop offset="0.48" stop-color="#D46A38"/>
<stop offset="0.7" stop-color="#CE6242"/>
<stop offset="0.99" stop-color="#CC6045"/>
</linearGradient>
<linearGradient id="paint1_linear_4405_4720" x1="51.3901" y1="100.393" x2="30.4935" y2="105.962" gradientUnits="userSpaceOnUse">
<stop stop-color="white"/>
<stop offset="0.19" stop-color="#FFF5D7"/>
<stop offset="0.61" stop-color="#FFDD73"/>
<stop offset="1" stop-color="#FFC613"/>
</linearGradient>
<linearGradient id="paint2_linear_4405_4720" x1="-5.90551" y1="-15.7357" x2="84.5789" y2="245.894" gradientUnits="userSpaceOnUse">
<stop stop-color="white"/>
<stop offset="0.02" stop-color="#FFFEFD"/>
<stop offset="0.45" stop-color="#FFF6D4"/>
<stop offset="0.79" stop-color="#FFF1BC"/>
<stop offset="1" stop-color="#FFF0B3"/>
</linearGradient>
<linearGradient id="paint3_linear_4405_4720" x1="36.7118" y1="78.2594" x2="1.14545" y2="-23.3586" gradientUnits="userSpaceOnUse">
<stop stop-color="#FCB05E"/>
<stop offset="0.29" stop-color="#FAAD5D"/>
<stop offset="0.49" stop-color="#F4A35A"/>
<stop offset="0.67" stop-color="#EB9455"/>
<stop offset="0.83" stop-color="#DE7E4E"/>
<stop offset="0.98" stop-color="#CD6245"/>
<stop offset="0.99" stop-color="#CC6045"/>
</linearGradient>
<linearGradient id="paint4_linear_4405_4720" x1="13.6021" y1="19.4087" x2="23.0352" y2="-1.34695" gradientUnits="userSpaceOnUse">
<stop stop-color="#561A00"/>
<stop offset="0.19" stop-color="#581B03"/>
<stop offset="0.35" stop-color="#5F1F0D"/>
<stop offset="0.49" stop-color="#6B261E"/>
<stop offset="0.63" stop-color="#7C3035"/>
<stop offset="0.75" stop-color="#923D54"/>
<stop offset="0.88" stop-color="#AD4D79"/>
<stop offset="0.99" stop-color="#CC60A5"/>
</linearGradient>
<linearGradient id="paint5_linear_4405_4720" x1="58.8419" y1="87.8966" x2="36.8339" y2="94.7306" gradientUnits="userSpaceOnUse">
<stop stop-color="white"/>
<stop offset="0.04" stop-color="#F7E9FA"/>
<stop offset="0.12" stop-color="#E8BBEF"/>
<stop offset="0.22" stop-color="#DA92E6"/>
<stop offset="0.31" stop-color="#CE70DF"/>
<stop offset="0.42" stop-color="#C554D8"/>
<stop offset="0.53" stop-color="#BE3ED4"/>
<stop offset="0.65" stop-color="#B82FD0"/>
<stop offset="0.79" stop-color="#B526CE"/>
<stop offset="1" stop-color="#B524CE"/>
</linearGradient>
<linearGradient id="paint6_linear_4405_4720" x1="33.5431" y1="40.9534" x2="19.4214" y2="42.0628" gradientUnits="userSpaceOnUse">
<stop stop-color="white"/>
<stop offset="0.54" stop-color="#FFF7D7"/>
<stop offset="1" stop-color="#FFF0B3"/>
</linearGradient>
<linearGradient id="paint7_linear_4405_4720" x1="19.1924" y1="10.6023" x2="14.2749" y2="11.0983" gradientUnits="userSpaceOnUse">
<stop stop-color="white"/>
<stop offset="0.54" stop-color="#FFF7D7"/>
<stop offset="1" stop-color="#FFF0B3"/>
</linearGradient>
</defs>
</svg>
