<svg width="88" height="110" viewBox="0 0 88 110" fill="none" xmlns="http://www.w3.org/2000/svg">
<path d="M36.4964 53.306C36.4964 53.306 37.7776 59.0503 39.7097 68.0888C46.1921 98.4074 60.0219 165.811 57.6121 178.247C56.0323 186.385 53.3093 182.555 50.1959 173.394C47.1335 164.379 43.6956 150.205 40.6127 137.193C37.6639 124.744 33.6214 106.596 30.1459 90.8677C28.5635 83.7015 27.0985 77.0381 25.9093 71.645C24.2104 63.9406 23.0679 58.8342 22.9513 58.5715L36.4964 53.306Z" fill="url(#paint0_linear_4405_4592)"/>
<path style="mix-blend-mode:multiply" opacity="0.4" d="M39.5378 68.0519C40.1057 70.7016 40.7308 73.6354 41.4016 76.7919C41.9816 79.544 42.5956 82.4572 43.2242 85.5015C50.1686 118.958 59.5717 167.842 57.5729 178.241C56.008 186.377 53.2839 182.543 50.1621 173.377C58.7895 166.578 42.8109 88.8382 36.452 86.8159C33.3343 85.821 30.7368 88.637 30.0294 90.8186C29.7518 89.5654 29.4802 88.3341 29.2081 87.1206C28.7688 85.1295 28.3396 83.1944 27.9236 81.3262C27.1413 77.7882 26.4137 74.5056 25.7662 71.5893L39.5378 68.0519Z" fill="url(#paint1_linear_4405_4592)"/>
<path style="mix-blend-mode:multiply" opacity="0.4" d="M42.2567 76.7732C42.8836 79.6252 43.5472 82.6443 44.227 85.7991C42.0393 84.9827 38.869 84.0646 35.985 84.4183C33.2275 84.7526 30.9597 86.1682 29.4543 87.4C28.98 85.3364 28.5167 83.3309 28.0676 81.3948L42.2567 76.7732Z" fill="url(#paint2_linear_4405_4592)"/>
<path d="M37.0062 9.6573C38.029 12.8277 42.3427 28.453 40.7695 36.2833C40.3443 38.4141 39.4749 39.9664 37.9879 40.5317C37.6282 40.67 37.2471 40.8137 36.8501 40.9614C34.5819 41.8069 31.8401 42.7718 29.0724 43.5052C29.0032 43.5226 28.9287 43.5414 28.8542 43.5602C22.9469 45.1028 16.965 45.5631 15.2781 41.5423C15.157 41.2574 15.0227 40.9461 14.8752 40.6083C14.6933 40.1899 14.4912 39.7409 14.2691 39.2612C13.2912 37.1091 12.009 34.3493 10.7479 31.4235C7.57976 24.0443 4.60717 15.61 7.2717 13.1528C7.5925 12.8577 7.96278 12.5561 8.38036 12.2603C8.81605 11.9481 9.30122 11.6294 9.82305 11.3194C10.2964 11.0393 10.798 10.7582 11.3202 10.4896C11.5279 10.3778 11.7371 10.2715 11.9532 10.1694C12.3786 9.96098 12.8146 9.7499 13.2553 9.55548C13.407 9.48748 13.564 9.41814 13.7157 9.35014C13.8211 9.29977 13.9281 9.25494 14.0351 9.21012C14.8841 8.84733 15.7553 8.50273 16.6079 8.1926C16.9996 8.04625 17.3891 7.91235 17.7749 7.78534C17.9101 7.73936 18.0452 7.69339 18.1767 7.65431C18.2299 7.6409 18.2815 7.62193 18.3331 7.60297C18.5891 7.5206 18.8466 7.44378 19.0988 7.3683C19.6107 7.20355 20.1077 7.06638 20.5812 6.94702C21.2941 6.76731 21.9564 6.63013 22.5453 6.53526C22.9485 6.46934 23.3139 6.43081 23.6452 6.41276C24.4647 6.3669 25.0312 6.47406 25.24 6.76664C26.3676 8.36316 30.389 19.3185 30.5749 19.8311C30.4018 19.3034 26.7169 7.94777 28.404 7.28443C30.1322 6.6048 35.7085 5.62176 37.01 9.65041L37.0062 9.6573Z" fill="url(#paint3_linear_4405_4592)"/>
<path style="mix-blend-mode:multiply" opacity="0.4" d="M22.0707 39.766C21.9914 39.567 18.8772 37.7389 16.8148 35.0318C14.476 31.9623 11.6514 27.0801 11.6514 27.0801C11.6514 27.0801 14.6266 35.1722 17.0449 37.2161C19.4649 39.2657 22.0707 39.766 22.0707 39.766Z" fill="url(#paint4_linear_4405_4592)"/>
<path style="mix-blend-mode:multiply" opacity="0.4" d="M13.3296 9.91855C13.8247 13.2175 14.6568 16.2949 15.6531 19.4122C18.5996 28.6517 26.7678 42.2632 26.7678 42.2632C26.7678 42.2632 21.6084 34.9829 17.4517 26.4006C14.9888 21.3195 12.6542 14.7211 11.4775 10.8406C11.6764 10.7308 11.8768 10.6265 12.0838 10.5263C12.4913 10.3218 12.9089 10.1147 13.3312 9.92402L13.3296 9.91855Z" fill="url(#paint5_linear_4405_4592)"/>
<path style="mix-blend-mode:multiply" opacity="0.4" d="M36.8411 9.67551C37.8807 12.8585 42.2822 28.5413 40.7774 36.3762C40.6493 37.0473 40.477 37.6635 40.2505 38.2096C39.7673 39.3929 39.0494 40.2342 38.0456 40.6147C37.6892 40.7509 37.3117 40.8924 36.9184 41.0378C34.6713 41.8703 31.9547 42.8193 29.2105 43.5361C29.1419 43.5531 29.068 43.5715 28.9942 43.5898C23.7948 44.9279 18.5288 45.4103 16.2232 42.6789C15.9309 42.3332 15.687 41.9397 15.4935 41.4859C15.3711 41.1997 15.2354 40.8869 15.0863 40.5475C14.9025 40.1272 14.6985 39.676 14.4742 39.194C15.9809 39.1247 21.3811 36.8586 23.998 33.6105C28.4638 28.0755 24.9737 11.7902 23.5414 6.35088C24.3552 6.31022 24.9188 6.42126 25.1284 6.71574C26.252 8.31274 30.2828 19.1768 30.5222 19.8283L30.5254 19.8395C30.5254 19.8395 30.5222 19.8283 30.5206 19.8227L30.4722 19.6555L30.4375 19.5745L30.3479 19.304C29.5924 16.9466 26.781 7.83497 28.2687 7.2507C28.7505 7.05944 29.5387 6.85191 30.4487 6.7336C30.8362 6.68523 31.2459 6.65524 31.669 6.6518C31.6954 6.64525 31.7197 6.65116 31.7424 6.6515C31.8491 6.64892 31.9574 6.65191 32.0657 6.65491C32.2369 6.66022 32.4028 6.66684 32.5719 6.68461C33.1527 6.73763 33.7285 6.85162 34.2672 7.05247C34.6535 7.19556 35.0179 7.37994 35.346 7.61513C36.0007 8.07994 36.528 8.74958 36.8306 9.67813L36.8411 9.67551Z" fill="url(#paint6_linear_4405_4592)"/>
<path style="mix-blend-mode:multiply" opacity="0.4" d="M18.6532 7.94728C21.1371 15.1381 27.5626 34.1478 27.5938 38.6152C27.5985 39.0697 24.3383 28.327 22.0187 20.9058C20.4676 15.9343 19.3622 12.3642 18.1193 8.12922C18.2473 8.08371 18.3754 8.03819 18.4999 7.99945C18.5503 7.98614 18.5993 7.96738 18.6482 7.94861L18.6532 7.94728Z" fill="url(#paint7_linear_4405_4592)"/>
<path style="mix-blend-mode:multiply" opacity="0.4" d="M32.447 6.68006C34.4911 11.7321 38.336 22.0452 37.8756 26.9654C37.2501 33.562 34.3568 38.5262 34.298 38.6294C34.3275 38.4807 36.9584 30.6735 36.3411 24.2878C35.9054 19.7958 33.2027 10.7672 32.067 6.67698C32.0926 6.67045 32.1162 6.67619 32.1383 6.67645C32.2419 6.67356 32.347 6.67616 32.4521 6.67875L32.447 6.68006Z" fill="url(#paint8_linear_4405_4592)"/>
<path style="mix-blend-mode:multiply" opacity="0.4" d="M40.0844 37.8882C39.5878 39.1091 38.852 39.9779 37.8248 40.3722C37.4602 40.5133 37.0739 40.6599 36.6714 40.8106C34.3722 41.6732 31.5926 42.6569 28.7854 43.4013C28.7152 43.419 28.6397 43.4381 28.5641 43.4571C23.2453 44.8468 17.8604 45.3544 15.5092 42.5427C15.3745 40.5267 16.4327 38.13 21.0041 36.35C29.4444 33.0655 38.2745 32.022 40.0915 37.8925L40.0844 37.8882Z" fill="url(#paint9_linear_4405_4592)"/>
<path d="M38.8311 38.488C40.9018 48.2603 42.8488 67.3869 43.5161 74.3502C43.6737 75.9989 43.7626 76.9683 43.7626 76.9683C43.7626 76.9683 46.7034 79.4644 46.3978 81.7619C46.2807 82.6595 45.6596 83.5254 44.1801 84.2015C44.1801 84.2015 36.2545 81.2683 29.8723 86.6233C29.8723 86.6233 27.9444 86.3916 27.121 84.9943C26.5677 84.054 26.5135 82.5917 27.8667 80.318C27.8667 80.318 27.3252 78.4064 26.5142 75.524C24.8148 69.5249 21.9215 59.3116 20.1554 53.3353C18.8482 48.9195 17.215 45.4779 16.6962 42.8521C16.1758 40.2208 16.784 38.3957 19.9755 37.209C26.3479 34.8382 37.3351 31.4395 38.8296 38.4825L38.8311 38.488Z" fill="url(#paint10_linear_4405_4592)"/>
<path style="mix-blend-mode:multiply" opacity="0.4" d="M38.7725 38.5097C41.4002 50.6344 43.9264 77.0949 43.9264 77.0949C43.9264 77.0949 41.2682 76.4202 35.9421 77.313C30.6175 78.2114 28.1267 80.3568 28.1267 80.3568C28.1267 80.3568 27.5757 78.4384 26.7504 75.5456C29.506 77.3574 33.4387 77.6247 38.042 73.8846C42.8092 70.0146 36.013 39.875 28.8875 38.3555C22.1088 36.9152 19.3952 39.1994 16.7739 42.7582C16.2393 40.1186 16.8327 38.2933 20.0001 37.1224C26.3246 34.783 37.2336 31.4399 38.7657 38.5055L38.7725 38.5097Z" fill="url(#paint11_linear_4405_4592)"/>
<path style="mix-blend-mode:multiply" opacity="0.4" d="M46.1953 81.6023C46.0802 82.5336 45.4466 83.4295 43.9294 84.1239C43.9294 84.1239 35.7634 81.0372 29.2327 86.5643C29.2327 86.5643 27.2491 86.3137 26.3943 84.8586C25.8199 83.8794 25.7557 82.3608 27.1337 80.007C27.1337 80.007 25.8865 83.789 27.5584 83.0497C29.2609 82.2965 35.6539 79.5422 39.6563 79.924C42.7204 80.2161 41.8122 77.9273 40.8638 76.3668C42.5926 76.3928 43.4596 76.617 43.4596 76.617C43.4596 76.617 46.4977 79.2241 46.1969 81.608L46.1953 81.6023Z" fill="url(#paint12_linear_4405_4592)"/>
<path style="mix-blend-mode:multiply" opacity="0.4" d="M30.9852 6.83786C30.9217 8.6627 30.9456 11.6395 31.512 15.047C32.4451 20.6801 32.3014 23.9582 32.3014 23.9582C31.7853 22.1174 30.9969 19.7356 30.9969 19.7356L30.9938 19.7246L30.9426 19.5616L30.9196 19.4794L30.8341 19.2136C30.1132 16.8967 27.4323 7.94137 28.8747 7.36066C29.3418 7.17057 30.1055 6.96329 30.9868 6.84334L30.9852 6.83786Z" fill="url(#paint13_linear_4405_4592)"/>
<path style="mix-blend-mode:overlay" opacity="0.3" d="M34.7984 93.2566C31.5522 96.3298 42.7739 145.364 46.6614 153.583C50.5489 161.801 49.1319 140.441 46.0428 124.635C42.9537 108.828 38.4267 89.8149 34.7968 93.2512L34.7984 93.2566Z" fill="url(#paint14_linear_4405_4592)"/>
<path style="mix-blend-mode:overlay" opacity="0.3" d="M20.7014 41.9847C18.3122 45.0542 24.0252 64.1884 27.9176 69.0684C31.8049 73.9496 38.233 69.8349 35.1944 57.0328C32.1557 44.2308 23.2874 38.6708 20.7082 41.9889L20.7014 41.9847Z" fill="url(#paint15_linear_4405_4592)"/>
<path style="mix-blend-mode:overlay" opacity="0.3" d="M20.2941 19.3812C21.3599 23.7111 22.9754 29.4246 22.843 30.4381C22.7122 31.4572 19.9058 27.6222 18.2466 24.1019C16.8655 21.167 14.2277 13.1593 13.9315 9.72812C14.0324 9.67869 14.1348 9.63473 14.2373 9.59077C15.0501 9.23492 15.8843 8.89703 16.7006 8.59305C18.269 11.0047 19.5992 16.557 20.2957 19.3866L20.2941 19.3812Z" fill="url(#paint16_linear_4405_4592)"/>
<path style="mix-blend-mode:overlay" opacity="0.3" d="M25.8008 22.362C25.6815 26.8976 24.1308 21.3736 22.74 17.8059C21.7756 15.3272 20.0142 10.6149 19.4791 7.61528C19.9692 7.46645 20.4469 7.33251 20.9022 7.21608C21.5876 7.04077 22.2245 6.90725 22.7908 6.81528C24.741 10.8332 25.8817 19.2519 25.8008 22.362Z" fill="url(#paint17_linear_4405_4592)"/>
<path style="mix-blend-mode:overlay" opacity="0.3" d="M16.1391 32.1426C14.3595 30.765 12.1541 27.986 10.6771 24.793C11.7298 29.1011 14.0501 35.2817 13.5024 34.9309C12.948 34.5758 11.8054 33.3379 10.6256 31.6967C7.51358 24.384 4.58636 16.0284 7.16201 13.6093C7.47212 13.3187 7.83023 13.0219 8.23431 12.7312C8.65591 12.4242 9.12551 12.1111 9.63076 11.8066C13.7654 17.1515 19.7754 34.955 16.1391 32.1426Z" fill="url(#paint18_linear_4405_4592)"/>
<path style="mix-blend-mode:screen" d="M23.3978 45.719C22.8572 48.4466 28.366 68.3325 30.2282 70.1521C32.0903 71.9717 24.7253 39.0294 23.3978 45.719Z" fill="url(#paint19_linear_4405_4592)"/>
<path style="mix-blend-mode:overlay" opacity="0.3" d="M30.9089 78.5088C28.0191 79.8374 27.7297 82.5683 29.345 81.7988C31.797 80.6247 37.6668 80.1745 38.474 78.8855C39.5657 77.1464 34.6149 76.8057 30.9089 78.5088Z" fill="url(#paint20_linear_4405_4592)"/>
<path style="mix-blend-mode:screen" d="M31.6658 78.9185C30.4568 79.6915 31.4187 80.6315 33.9472 79.4334C36.4757 78.2352 33.4582 77.7767 31.6658 78.9185Z" fill="url(#paint21_linear_4405_4592)"/>
<defs>
<linearGradient id="paint0_linear_4405_4592" x1="28.1734" y1="125.79" x2="62.3803" y2="110.236" gradientUnits="userSpaceOnUse">
<stop stop-color="#6B254C"/>
<stop offset="0.99" stop-color="#8A3A2C"/>
</linearGradient>
<linearGradient id="paint1_linear_4405_4592" x1="67.3403" y1="115.478" x2="44.8109" y2="125.197" gradientUnits="userSpaceOnUse">
<stop stop-color="white"/>
<stop offset="0.02" stop-color="#F7E9FA"/>
<stop offset="0.07" stop-color="#E9C0F1"/>
<stop offset="0.12" stop-color="#DD9BE8"/>
<stop offset="0.17" stop-color="#D27AE1"/>
<stop offset="0.23" stop-color="#C95FDB"/>
<stop offset="0.3" stop-color="#C149D6"/>
<stop offset="0.38" stop-color="#BB38D2"/>
<stop offset="0.48" stop-color="#B72CCF"/>
<stop offset="0.62" stop-color="#B525CE"/>
<stop offset="1" stop-color="#B524CE"/>
</linearGradient>
<linearGradient id="paint2_linear_4405_4592" x1="46.919" y1="79.0177" x2="35.7651" y2="83.9658" gradientUnits="userSpaceOnUse">
<stop stop-color="white"/>
<stop offset="0.02" stop-color="#F7E9FA"/>
<stop offset="0.07" stop-color="#E9C0F1"/>
<stop offset="0.12" stop-color="#DD9BE8"/>
<stop offset="0.17" stop-color="#D27AE1"/>
<stop offset="0.23" stop-color="#C95FDB"/>
<stop offset="0.3" stop-color="#C149D6"/>
<stop offset="0.38" stop-color="#BB38D2"/>
<stop offset="0.48" stop-color="#B72CCF"/>
<stop offset="0.62" stop-color="#B525CE"/>
<stop offset="1" stop-color="#B524CE"/>
</linearGradient>
<linearGradient id="paint3_linear_4405_4592" x1="10.7159" y1="31.7893" x2="40.8184" y2="17.7279" gradientUnits="userSpaceOnUse">
<stop stop-color="#FCB05E"/>
<stop offset="0.51" stop-color="#E48851"/>
<stop offset="0.99" stop-color="#CC6045"/>
</linearGradient>
<linearGradient id="paint4_linear_4405_4592" x1="7.76885" y1="24.8207" x2="22.5089" y2="40.1066" gradientUnits="userSpaceOnUse">
<stop stop-color="white"/>
<stop offset="0.06" stop-color="#F1D7F6"/>
<stop offset="0.13" stop-color="#E3AEEC"/>
<stop offset="0.21" stop-color="#D788E4"/>
<stop offset="0.29" stop-color="#CC69DD"/>
<stop offset="0.38" stop-color="#C34FD7"/>
<stop offset="0.48" stop-color="#BD3CD3"/>
<stop offset="0.6" stop-color="#B82ED0"/>
<stop offset="0.74" stop-color="#B526CE"/>
<stop offset="1" stop-color="#B524CE"/>
</linearGradient>
<linearGradient id="paint5_linear_4405_4592" x1="10.8654" y1="-12.779" x2="20.6" y2="42.0593" gradientUnits="userSpaceOnUse">
<stop stop-color="white"/>
<stop offset="0.12" stop-color="#F0D4F5"/>
<stop offset="0.29" stop-color="#DE9FE9"/>
<stop offset="0.45" stop-color="#CF73DF"/>
<stop offset="0.61" stop-color="#C450D8"/>
<stop offset="0.75" stop-color="#BB38D2"/>
<stop offset="0.89" stop-color="#B629CF"/>
<stop offset="1" stop-color="#B524CE"/>
</linearGradient>
<linearGradient id="paint6_linear_4405_4592" x1="55.9086" y1="37.6833" x2="10.3972" y2="22.9096" gradientUnits="userSpaceOnUse">
<stop stop-color="white"/>
<stop offset="0.12" stop-color="#F0D4F5"/>
<stop offset="0.29" stop-color="#DE9FE9"/>
<stop offset="0.45" stop-color="#CF73DF"/>
<stop offset="0.61" stop-color="#C450D8"/>
<stop offset="0.75" stop-color="#BB38D2"/>
<stop offset="0.89" stop-color="#B629CF"/>
<stop offset="1" stop-color="#B524CE"/>
</linearGradient>
<linearGradient id="paint7_linear_4405_4592" x1="11.1197" y1="-37.0567" x2="25.543" y2="45.203" gradientUnits="userSpaceOnUse">
<stop stop-color="white"/>
<stop offset="0.12" stop-color="#F0D4F5"/>
<stop offset="0.29" stop-color="#DE9FE9"/>
<stop offset="0.45" stop-color="#CF73DF"/>
<stop offset="0.61" stop-color="#C450D8"/>
<stop offset="0.75" stop-color="#BB38D2"/>
<stop offset="0.89" stop-color="#B629CF"/>
<stop offset="1" stop-color="#B524CE"/>
</linearGradient>
<linearGradient id="paint8_linear_4405_4592" x1="21.8756" y1="-38.0534" x2="35.6862" y2="44.6275" gradientUnits="userSpaceOnUse">
<stop stop-color="white"/>
<stop offset="0.12" stop-color="#F0D4F5"/>
<stop offset="0.29" stop-color="#DE9FE9"/>
<stop offset="0.45" stop-color="#CF73DF"/>
<stop offset="0.61" stop-color="#C450D8"/>
<stop offset="0.75" stop-color="#BB38D2"/>
<stop offset="0.89" stop-color="#B629CF"/>
<stop offset="1" stop-color="#B524CE"/>
</linearGradient>
<linearGradient id="paint9_linear_4405_4592" x1="29.6215" y1="47.4578" x2="27.1364" y2="35.9236" gradientUnits="userSpaceOnUse">
<stop stop-color="white"/>
<stop offset="0.12" stop-color="#F0D4F5"/>
<stop offset="0.29" stop-color="#DE9FE9"/>
<stop offset="0.45" stop-color="#CF73DF"/>
<stop offset="0.61" stop-color="#C450D8"/>
<stop offset="0.75" stop-color="#BB38D2"/>
<stop offset="0.89" stop-color="#B629CF"/>
<stop offset="1" stop-color="#B524CE"/>
</linearGradient>
<linearGradient id="paint10_linear_4405_4592" x1="18.6526" y1="66.7972" x2="46.203" y2="53.9978" gradientUnits="userSpaceOnUse">
<stop stop-color="#FFD669"/>
<stop offset="0.88" stop-color="#FFAE4B"/>
<stop offset="0.99" stop-color="#FFA947"/>
</linearGradient>
<linearGradient id="paint11_linear_4405_4592" x1="61.4569" y1="52.2874" x2="14.8588" y2="61.7937" gradientUnits="userSpaceOnUse">
<stop stop-color="white"/>
<stop offset="0.12" stop-color="#F0D4F5"/>
<stop offset="0.29" stop-color="#DE9FE9"/>
<stop offset="0.45" stop-color="#CF73DF"/>
<stop offset="0.61" stop-color="#C450D8"/>
<stop offset="0.75" stop-color="#BB38D2"/>
<stop offset="0.89" stop-color="#B629CF"/>
<stop offset="1" stop-color="#B524CE"/>
</linearGradient>
<linearGradient id="paint12_linear_4405_4592" x1="56.5476" y1="84.4064" x2="23.7385" y2="82.147" gradientUnits="userSpaceOnUse">
<stop stop-color="white"/>
<stop offset="0.12" stop-color="#F0D4F5"/>
<stop offset="0.29" stop-color="#DE9FE9"/>
<stop offset="0.45" stop-color="#CF73DF"/>
<stop offset="0.61" stop-color="#C450D8"/>
<stop offset="0.75" stop-color="#BB38D2"/>
<stop offset="0.89" stop-color="#B629CF"/>
<stop offset="1" stop-color="#B524CE"/>
</linearGradient>
<linearGradient id="paint13_linear_4405_4592" x1="26.7383" y1="1.44674" x2="33.8362" y2="22.4296" gradientUnits="userSpaceOnUse">
<stop stop-color="white"/>
<stop offset="0.12" stop-color="#F0D4F5"/>
<stop offset="0.29" stop-color="#DE9FE9"/>
<stop offset="0.45" stop-color="#CF73DF"/>
<stop offset="0.61" stop-color="#C450D8"/>
<stop offset="0.75" stop-color="#BB38D2"/>
<stop offset="0.89" stop-color="#B629CF"/>
<stop offset="1" stop-color="#B524CE"/>
</linearGradient>
<linearGradient id="paint14_linear_4405_4592" x1="67.2407" y1="148.867" x2="16.4412" y2="104.927" gradientUnits="userSpaceOnUse">
<stop stop-color="white"/>
<stop offset="0.54" stop-color="#FFF7D7"/>
<stop offset="1" stop-color="#FFF0B3"/>
</linearGradient>
<linearGradient id="paint15_linear_4405_4592" x1="34.4094" y1="76.2457" x2="25.757" y2="41.9767" gradientUnits="userSpaceOnUse">
<stop stop-color="white"/>
<stop offset="0.54" stop-color="#FFF7D7"/>
<stop offset="1" stop-color="#FFF0B3"/>
</linearGradient>
<linearGradient id="paint16_linear_4405_4592" x1="22.6717" y1="34.87" x2="16.244" y2="10.0107" gradientUnits="userSpaceOnUse">
<stop stop-color="white"/>
<stop offset="0.54" stop-color="#FFF7D7"/>
<stop offset="1" stop-color="#FFF0B3"/>
</linearGradient>
<linearGradient id="paint17_linear_4405_4592" x1="26.7805" y1="26.9779" x2="21.8949" y2="7.95513" gradientUnits="userSpaceOnUse">
<stop stop-color="white"/>
<stop offset="0.54" stop-color="#FFF7D7"/>
<stop offset="1" stop-color="#FFF0B3"/>
</linearGradient>
<linearGradient id="paint18_linear_4405_4592" x1="18.2944" y1="35.9237" x2="5.23361" y2="13.5293" gradientUnits="userSpaceOnUse">
<stop stop-color="white"/>
<stop offset="0.54" stop-color="#FFF7D7"/>
<stop offset="1" stop-color="#FFF0B3"/>
</linearGradient>
<linearGradient id="paint19_linear_4405_4592" x1="32.996" y1="73.6571" x2="22.0386" y2="43.2527" gradientUnits="userSpaceOnUse">
<stop stop-color="white"/>
<stop offset="0.54" stop-color="#FFF7D7"/>
<stop offset="1" stop-color="#FFF0B3"/>
</linearGradient>
<linearGradient id="paint20_linear_4405_4592" x1="33.65" y1="85.223" x2="33.8938" y2="77.4956" gradientUnits="userSpaceOnUse">
<stop stop-color="white"/>
<stop offset="0.54" stop-color="#FFF7D7"/>
<stop offset="1" stop-color="#FFF0B3"/>
</linearGradient>
<linearGradient id="paint21_linear_4405_4592" x1="33.8544" y1="81.7829" x2="32.8588" y2="78.2102" gradientUnits="userSpaceOnUse">
<stop stop-color="white"/>
<stop offset="0.54" stop-color="#FFF7D7"/>
<stop offset="1" stop-color="#FFF0B3"/>
</linearGradient>
</defs>
</svg>
