<svg width="20" height="20" viewBox="0 0 20 20" fill="none" xmlns="http://www.w3.org/2000/svg">
<path d="M10 20C15.5228 20 20 15.5228 20 10C20 4.47715 15.5228 0 10 0C4.47715 0 0 4.47715 0 10C0 15.5228 4.47715 20 10 20Z" fill="url(#paint0_linear_3126_18510)"/>
<path d="M8.58317 11.9165L6.6665 9.99984L8.58317 8.08317L9.1665 8.68734L7.854 9.99984L9.1665 11.3123L8.58317 11.9165ZM7.08317 12.0832H7.9165V12.4998H12.0832V12.0832H12.9165V13.7498C12.9165 13.979 12.835 14.1753 12.6719 14.3386C12.5089 14.5019 12.3126 14.5834 12.0832 14.5832H7.9165C7.68734 14.5832 7.49123 14.5016 7.32817 14.3386C7.16511 14.1755 7.08345 13.9793 7.08317 13.7498V12.0832ZM7.9165 7.9165H7.08317V6.24984C7.08317 6.02067 7.16484 5.82456 7.32817 5.6615C7.4915 5.49845 7.68762 5.41678 7.9165 5.4165H12.0832C12.3123 5.4165 12.5086 5.49817 12.6719 5.6615C12.8353 5.82484 12.9168 6.02095 12.9165 6.24984V7.9165H12.0832V7.49984H7.9165V7.9165ZM7.9165 13.3332V13.7498H12.0832V13.3332H7.9165ZM7.9165 6.6665H12.0832V6.24984H7.9165V6.6665ZM11.4165 11.9165L10.8332 11.3123L12.1457 9.99984L10.8332 8.68734L11.4165 8.08317L13.3332 9.99984L11.4165 11.9165Z" fill="white"/>
<defs>
<linearGradient id="paint0_linear_3126_18510" x1="2.92908" y1="2.92908" x2="17.0709" y2="17.0709" gradientUnits="userSpaceOnUse">
<stop stop-color="#DCFFF1"/>
<stop offset="0.18" stop-color="#4BCE97"/>
<stop offset="0.4599" stop-color="#1F845A"/>
<stop offset="0.46" stop-color="#1F845A"/>
<stop offset="0.82" stop-color="#164B35"/>
<stop offset="1" stop-color="#1C3329"/>
</linearGradient>
</defs>
</svg>
