<svg width="20" height="20" viewBox="0 0 20 20" fill="none" xmlns="http://www.w3.org/2000/svg">
<g clip-path="url(#clip0_3079_11637)">
<path d="M10 20C15.5228 20 20 15.5228 20 10C20 4.47715 15.5228 0 10 0C4.47715 0 0 4.47715 0 10C0 15.5228 4.47715 20 10 20Z" fill="url(#paint0_linear_3079_11637)"/>
<path d="M14.3853 5.99223C13.5545 5.61036 12.6816 5.34179 11.7794 5.18652C11.6661 5.38795 11.536 5.65652 11.4479 5.87054C10.4911 5.72786 9.51753 5.72786 8.56075 5.87054C8.46004 5.63554 8.34254 5.40893 8.21665 5.18652C7.31442 5.33759 6.43738 5.61036 5.61069 5.99643C3.9657 8.44712 3.52089 10.8391 3.74329 13.1974C4.70846 13.915 5.79113 14.4605 6.94094 14.8088C7.20112 14.4564 7.42773 14.0871 7.62496 13.6968C7.25148 13.5583 6.89059 13.3863 6.54648 13.1806C6.63461 13.1135 6.72273 13.0464 6.80666 12.975C8.82932 13.9318 11.1751 13.9318 13.202 12.975C13.2859 13.0464 13.3782 13.1135 13.4663 13.1806C13.1222 13.3863 12.7613 13.5583 12.3879 13.6968C12.5851 14.0829 12.8159 14.4564 13.0719 14.8047C14.2217 14.4564 15.3044 13.9108 16.2695 13.1932C16.5297 10.4614 15.8205 8.09043 14.3895 5.98803L14.3853 5.99223ZM7.90192 11.7497C7.27666 11.7497 6.76889 11.179 6.76889 10.4782C6.76889 9.77738 7.26826 9.20247 7.90192 9.20247C8.53557 9.20247 9.04334 9.77318 9.03914 10.474C9.03494 11.1748 8.53977 11.7497 7.90192 11.7497ZM12.0983 11.7497C11.473 11.7497 10.9653 11.179 10.9653 10.4782C10.9653 9.77738 11.4647 9.20247 12.0983 9.20247C12.732 9.20247 13.2397 9.77318 13.2313 10.474C13.2229 11.1748 12.732 11.7497 12.0983 11.7497Z" fill="white"/>
</g>
<defs>
<linearGradient id="paint0_linear_3079_11637" x1="2.92908" y1="2.92908" x2="17.0709" y2="17.0709" gradientUnits="userSpaceOnUse">
<stop stop-color="#5865F2"/>
<stop offset="0.71" stop-color="#641EE1"/>
<stop offset="1" stop-color="#6A00DB"/>
</linearGradient>
<clipPath id="clip0_3079_11637">
<rect width="20" height="20" fill="white"/>
</clipPath>
</defs>
</svg>
