<svg width="20" height="20" viewBox="0 0 20 20" fill="none" xmlns="http://www.w3.org/2000/svg">
<g clip-path="url(#clip0_3079_11634)">
<path d="M10 20C15.5228 20 20 15.5228 20 10C20 4.47715 15.5228 0 10 0C4.47715 0 0 4.47715 0 10C0 15.5228 4.47715 20 10 20Z" fill="url(#paint0_linear_3079_11634)"/>
<path d="M12.7569 6.65527C12.4212 6.65527 12.1484 6.92804 12.1484 7.26375C12.1484 7.59946 12.4212 7.87223 12.7569 7.87223C13.0926 7.87223 13.3654 7.59946 13.3654 7.26375C13.3654 6.92804 13.0926 6.65527 12.7569 6.65527Z" fill="white"/>
<path d="M10.042 7.43604C8.62784 7.43604 7.47803 8.58585 7.47803 10C7.47803 11.4142 8.62784 12.564 10.042 12.564C11.4562 12.564 12.606 11.4142 12.606 10C12.606 8.58585 11.4562 7.43604 10.042 7.43604ZM10.042 11.6408C9.1356 11.6408 8.40123 10.9023 8.40123 10C8.40123 9.09781 9.1398 8.35924 10.042 8.35924C10.9442 8.35924 11.6828 9.09781 11.6828 10C11.6828 10.9023 10.9442 11.6408 10.042 11.6408Z" fill="white"/>
<path d="M12.0771 15.2034H7.9227C6.19798 15.2034 4.79639 13.8018 4.79639 12.0771V7.9227C4.79639 6.19798 6.19798 4.79639 7.9227 4.79639H12.0771C13.8018 4.79639 15.2034 6.19798 15.2034 7.9227V12.0771C15.2034 13.8018 13.8018 15.2034 12.0771 15.2034ZM7.9227 5.77415C6.73932 5.77415 5.77415 6.73932 5.77415 7.9227V12.0771C5.77415 13.2605 6.73932 14.2257 7.9227 14.2257H12.0771C13.2605 14.2257 14.2257 13.2605 14.2257 12.0771V7.9227C14.2257 6.73932 13.2605 5.77415 12.0771 5.77415H7.9227Z" fill="white"/>
</g>
<defs>
<linearGradient id="paint0_linear_3079_11634" x1="2.92908" y1="2.92908" x2="17.0709" y2="17.0709" gradientUnits="userSpaceOnUse">
<stop stop-color="#FFE185"/>
<stop offset="0.21" stop-color="#FFBB36"/>
<stop offset="0.38" stop-color="#FF5176"/>
<stop offset="0.52" stop-color="#F63395"/>
<stop offset="0.74" stop-color="#A436D2"/>
<stop offset="1" stop-color="#5F4EED"/>
</linearGradient>
<clipPath id="clip0_3079_11634">
<rect width="20" height="20" fill="white"/>
</clipPath>
</defs>
</svg>
