<svg width="20" height="20" viewBox="0 0 20 20" fill="none" xmlns="http://www.w3.org/2000/svg">
<g clip-path="url(#clip0_3079_11639)">
<path d="M10 20C15.5228 20 20 15.5228 20 10C20 4.47715 15.5228 0 10 0C4.47715 0 0 4.47715 0 10C0 15.5228 4.47715 20 10 20Z" fill="url(#paint0_linear_3079_11639)"/>
<path d="M4.26749 9.76498C4.26749 9.76498 9.26959 7.71295 11.0069 6.98697C11.6699 6.69742 13.9276 5.77422 13.9276 5.77422C13.9276 5.77422 14.9683 5.37136 14.8802 6.35332C14.8508 6.75617 14.62 8.17455 14.3892 9.70623C14.0409 11.8758 13.6674 14.2467 13.6674 14.2467C13.6674 14.2467 13.6087 14.914 13.1177 15.0273C12.6267 15.1448 11.8168 14.6244 11.6699 14.5069C11.5524 14.4188 9.50039 13.1179 8.74924 12.4842C8.54781 12.3122 8.31701 11.9639 8.77861 11.5568C9.81932 10.6043 11.0615 9.41668 11.8168 8.66553C12.1651 8.31723 12.5092 7.50733 11.0656 8.49348C9.01361 9.91186 6.98675 11.2421 6.98675 11.2421C6.98675 11.2421 6.52515 11.5317 5.6565 11.2715C4.78784 11.0113 3.77651 10.663 3.77651 10.663C3.77651 10.663 3.08411 10.2308 4.26749 9.76498Z" fill="white"/>
</g>
<defs>
<linearGradient id="paint0_linear_3079_11639" x1="2.92908" y1="2.92908" x2="17.0709" y2="17.0709" gradientUnits="userSpaceOnUse">
<stop stop-color="#2CB5E5"/>
<stop offset="0.65" stop-color="#6C6EF5"/>
<stop offset="1" stop-color="#9146FF"/>
</linearGradient>
<clipPath id="clip0_3079_11639">
<rect width="20" height="20" fill="white"/>
</clipPath>
</defs>
</svg>
