<svg width="20" height="20" viewBox="0 0 20 20" fill="none" xmlns="http://www.w3.org/2000/svg">
<g clip-path="url(#clip0_3079_11638)">
<path d="M10 20C15.5228 20 20 15.5228 20 10C20 4.47715 15.5228 0 10 0C4.47715 0 0 4.47715 0 10C0 15.5228 4.47715 20 10 20Z" fill="url(#paint0_linear_3079_11638)"/>
<path d="M12.3292 9.56342C12.3754 9.58441 12.4174 9.60539 12.4635 9.62217C13.0888 9.92431 13.5504 10.3775 13.7896 10.9398C14.1253 11.7246 14.1589 12.9961 13.1391 14.0116C12.3628 14.7879 11.4144 15.1362 10.08 15.1488H10.0716C8.56507 15.1362 7.41106 14.6327 6.63053 13.6423C5.93813 12.7611 5.58144 11.5357 5.56885 10.004V9.99565C5.58144 8.45558 5.93393 7.23023 6.63053 6.35318C7.41106 5.36284 8.56927 4.85927 10.0758 4.84668H10.0842C11.5907 4.85927 12.7657 5.36284 13.5672 6.34479C13.9616 6.83157 14.2554 7.41907 14.44 8.09888L13.5714 8.32968C13.4203 7.77576 13.1895 7.30577 12.879 6.92809C12.2537 6.16015 11.3137 5.76569 10.08 5.7573C8.85882 5.76989 7.93142 6.16015 7.33133 6.92389C6.76902 7.63728 6.47946 8.67379 6.46688 9.99565C6.47946 11.3175 6.76902 12.354 7.33133 13.0716C7.93142 13.8353 8.85882 14.2298 10.08 14.2382C11.1836 14.2298 11.9138 13.9696 12.5181 13.3612C13.2105 12.6688 13.1979 11.8211 12.9755 11.3049C12.8454 10.9986 12.6104 10.7468 12.2915 10.558C12.2117 11.1371 12.0397 11.5945 11.7627 11.947C11.3976 12.4128 10.8731 12.6688 10.2017 12.7023C9.6939 12.7317 9.20712 12.61 8.82944 12.3582C8.38463 12.0603 8.12025 11.6113 8.09508 11.0867C8.04052 10.0502 8.86301 9.30744 10.1387 9.23191C10.5919 9.20673 11.0158 9.22352 11.4102 9.29066C11.3599 8.97173 11.255 8.71995 11.0955 8.53531C10.8815 8.28352 10.5458 8.15763 10.1051 8.15344H10.0884C9.73167 8.15344 9.25328 8.25415 8.94275 8.71575L8.20418 8.20799C8.61543 7.58273 9.28265 7.23862 10.0884 7.23862H10.1051C11.448 7.24702 12.2495 8.08629 12.3292 9.55083H12.325V9.55503L12.3292 9.56342ZM8.98051 11.0406C9.00989 11.5777 9.58899 11.8295 10.1513 11.7959C10.701 11.7665 11.3221 11.5525 11.427 10.2265C11.1459 10.1635 10.8311 10.1341 10.4954 10.1341C10.3905 10.1341 10.2898 10.1341 10.1849 10.1425C9.26587 10.1929 8.95953 10.6419 8.98051 11.0406Z" fill="white"/>
</g>
<defs>
<linearGradient id="paint0_linear_3079_11638" x1="2.92908" y1="2.92908" x2="17.0709" y2="17.0709" gradientUnits="userSpaceOnUse">
<stop stop-color="#23004A"/>
<stop offset="0.96" stop-color="#010003"/>
<stop offset="1"/>
</linearGradient>
<clipPath id="clip0_3079_11638">
<rect width="20" height="20" fill="white"/>
</clipPath>
</defs>
</svg>
