<svg width="20" height="20" viewBox="0 0 20 20" fill="none" xmlns="http://www.w3.org/2000/svg">
<g clip-path="url(#clip0_3079_11636)">
<path d="M10 20C15.5228 20 20 15.5228 20 10C20 4.47715 15.5228 0 10 0C4.47715 0 0 4.47715 0 10C0 15.5228 4.47715 20 10 20Z" fill="url(#paint0_linear_3079_11636)"/>
<path fill-rule="evenodd" clip-rule="evenodd" d="M12.0941 8.43878C12.8201 8.95913 13.7097 9.26127 14.6707 9.26127V7.41066C14.4902 7.41066 14.3056 7.39388 14.1293 7.35611V8.81226C13.1684 8.81226 12.2787 8.50592 11.5528 7.98976V11.7623C11.5528 13.6507 10.0211 15.1782 8.1327 15.1782C7.42771 15.1782 6.77307 14.9642 6.22754 14.5991C6.8486 15.2327 7.71306 15.6272 8.66984 15.6272C10.5582 15.6272 12.0899 14.0955 12.0899 12.2113V8.43878H12.0941ZM12.7613 6.57138C12.392 6.16433 12.1444 5.64398 12.0941 5.06488V4.82568H11.5821C11.7122 5.56005 12.1528 6.18951 12.7613 6.57138ZM7.42771 13.1513C7.22208 12.8786 7.10878 12.547 7.10878 12.2029C7.10878 11.3385 7.80958 10.6419 8.67403 10.6419C8.8335 10.6419 8.99296 10.6671 9.14823 10.7132V8.82484C8.96778 8.79967 8.78734 8.79127 8.60689 8.79547V10.2684C8.45163 10.218 8.29216 10.1971 8.1327 10.1971C7.26824 10.1971 6.56745 10.8979 6.56745 11.7581C6.56745 12.3666 6.91575 12.8953 7.42771 13.1555V13.1513Z" fill="#FF1753"/>
<path fill-rule="evenodd" clip-rule="evenodd" d="M11.5527 7.98976C12.2787 8.51012 13.1683 8.81225 14.1293 8.81225V7.35611C13.5921 7.24281 13.1179 6.96165 12.7612 6.57138C12.1486 6.18951 11.708 5.56005 11.5821 4.82568H10.235V12.2113C10.235 13.0716 9.53422 13.7682 8.66977 13.7682C8.162 13.7682 7.7088 13.5248 7.42344 13.1513C6.91148 12.8953 6.56318 12.3666 6.56318 11.7539C6.56318 10.8895 7.26398 10.1929 8.12843 10.1929C8.29209 10.1929 8.45156 10.218 8.60263 10.2642V8.79127C6.74782 8.82904 5.25391 10.3439 5.25391 12.2071C5.25391 13.1387 5.62738 13.9822 6.22747 14.5949C6.773 14.96 7.42764 15.174 8.13263 15.174C10.021 15.174 11.5527 13.6423 11.5527 11.7581V7.98557V7.98976Z" fill="white"/>
<path fill-rule="evenodd" clip-rule="evenodd" d="M14.1333 7.35619V6.96173C13.6507 6.96173 13.1765 6.82745 12.7653 6.57147C13.1304 6.97012 13.6088 7.24289 14.1333 7.35619ZM11.5819 4.82577C11.5693 4.75443 11.5609 4.68309 11.5525 4.61175V4.37256H9.69352V11.7582C9.69352 12.6185 8.99272 13.3151 8.12827 13.3151C7.87648 13.3151 7.63729 13.2563 7.42327 13.1472C7.70863 13.5207 8.16184 13.7641 8.6696 13.7641C9.52986 13.7641 10.2307 13.0675 10.2349 12.2072V4.82577H11.5819ZM8.60246 8.79555V8.37592C8.44719 8.35493 8.29192 8.34234 8.13246 8.34234C6.24408 8.34234 4.7124 9.87403 4.7124 11.7582C4.7124 12.9416 5.31249 13.9823 6.2273 14.5992C5.62302 13.9823 5.25374 13.1388 5.25374 12.2114C5.25374 10.3482 6.74346 8.83332 8.60246 8.79555Z" fill="#00C9D0"/>
</g>
<defs>
<linearGradient id="paint0_linear_3079_11636" x1="2.92908" y1="2.92908" x2="17.0709" y2="17.0709" gradientUnits="userSpaceOnUse">
<stop stop-color="#23004A"/>
<stop offset="0.96" stop-color="#010003"/>
<stop offset="1"/>
</linearGradient>
<clipPath id="clip0_3079_11636">
<rect width="20" height="20" fill="white"/>
</clipPath>
</defs>
</svg>
