<svg width="24" height="20" viewBox="0 0 24 20" fill="none" xmlns="http://www.w3.org/2000/svg">
	<path fillRule="evenodd" clipRule="evenodd" d="M10.4734 0.384553C10.9209 0.132799 11.4256 0.000549316 11.939 0.000549316C12.4525 0.000549316 12.9572 0.132799 13.4047 0.384553C13.8521 0.636307 14.2272 0.999076 14.4937 1.4379L14.4969 1.4431L22.9199 15.5031L22.9282 15.5172C23.1889 15.9691 23.3269 16.4814 23.3283 17.0031C23.3297 17.5248 23.1945 18.0378 22.9362 18.4911C22.6779 18.9444 22.3054 19.3222 21.8558 19.5869C21.4062 19.8516 20.8952 19.994 20.3735 20L20.362 20.0001L3.50561 20C2.98392 19.9941 2.47287 19.8516 2.02328 19.5869C1.57369 19.3222 1.20122 18.9444 0.94289 18.4911C0.684564 18.0378 0.549385 17.5248 0.550792 17.0031C0.552199 16.4814 0.690144 15.9691 0.95091 15.5172L0.959174 15.5032L9.38433 1.43789C9.65085 0.999066 10.0259 0.636307 10.4734 0.384553ZM11.939 2.00055C11.7692 2.00055 11.6021 2.04431 11.4541 2.12761C11.3068 2.2105 11.1831 2.32977 11.095 2.47402L2.67983 16.5227C2.59571 16.6708 2.55124 16.8381 2.55078 17.0085C2.55032 17.1811 2.59505 17.3509 2.68052 17.5008C2.766 17.6508 2.88924 17.7758 3.038 17.8634C3.18541 17.9502 3.35279 17.9973 3.52378 18H20.3553C20.5263 17.9973 20.6937 17.9502 20.8411 17.8634C20.9898 17.7758 21.1131 17.6508 21.1986 17.5008C21.284 17.3509 21.3288 17.1811 21.3283 17.0085C21.3278 16.8381 21.2834 16.6708 21.1993 16.5227L12.7843 2.47614C12.7839 2.47543 12.7835 2.47473 12.7831 2.47403C12.695 2.32978 12.5713 2.2105 12.424 2.12761C12.2759 2.04431 12.1089 2.00055 11.939 2.00055ZM11.9991 6.00002C12.5513 6.00002 12.9991 6.44773 12.9991 7.00002V11C12.9991 11.5523 12.5513 12 11.9991 12C11.4468 12 10.9991 11.5523 10.9991 11V7.00002C10.9991 6.44773 11.4468 6.00002 11.9991 6.00002ZM10.9991 15C10.9991 14.4477 11.4468 14 11.9991 14H12.0091C12.5613 14 13.0091 14.4477 13.0091 15C13.0091 15.5523 12.5613 16 12.0091 16H11.9991C11.4468 16 10.9991 15.5523 10.9991 15Z" fill="#ED2E7E"/>
	</svg>
	