<svg width="18" height="18" viewBox="0 0 18 18" fill="none" xmlns="http://www.w3.org/2000/svg">
	<path fillRule="evenodd" clipRule="evenodd" d="M3 2C2.73478 2 2.48043 2.10536 2.29289 2.29289C2.10536 2.48043 2 2.73478 2 3V15C2 15.2652 2.10536 15.5196 2.29289 15.7071C2.48043 15.8946 2.73478 16 3 16H15C15.2652 16 15.5196 15.8946 15.7071 15.7071C15.8946 15.5196 16 15.2652 16 15V9C16 8.44772 16.4477 8 17 8C17.5523 8 18 8.44772 18 9V15C18 15.7957 17.6839 16.5587 17.1213 17.1213C16.5587 17.6839 15.7957 18 15 18H3C2.20435 18 1.44129 17.6839 0.87868 17.1213C0.31607 16.5587 0 15.7956 0 15V3C0 2.20435 0.31607 1.44129 0.87868 0.87868C1.44129 0.31607 2.20435 0 3 0H12C12.5523 0 13 0.447715 13 1C13 1.55228 12.5523 2 12 2H3ZM16.2929 2.29289C16.6834 1.90237 17.3166 1.90237 17.7071 2.29289C18.0976 2.68342 18.0976 3.31658 17.7071 3.70711L9.70711 11.7071C9.31658 12.0976 8.68342 12.0976 8.29289 11.7071L5.29289 8.70711C4.90237 8.31658 4.90237 7.68342 5.29289 7.29289C5.68342 6.90237 6.31658 6.90237 6.70711 7.29289L9 9.58579L16.2929 2.29289Z" fill="#04C900"/>
	</svg>
	