<svg width="40" height="40" viewBox="0 0 40 40" fill="none" xmlns="http://www.w3.org/2000/svg">
<rect width="40" height="40" fill="#181818"/>
<path d="M32.04 18.2802C32.5073 17.1362 32.6635 15.889 32.4926 14.6651C32.3218 13.4413 31.83 12.2845 31.0673 11.3123C30.3046 10.34 29.2981 9.58704 28.1501 9.12979C27.0021 8.67254 25.7535 8.52732 24.5312 8.7089C23.7737 7.73317 22.7716 6.97526 21.6264 6.51212C20.4813 6.04898 19.234 5.89711 18.0112 6.07192C16.7884 6.24674 15.6336 6.74201 14.6641 7.50746C13.6946 8.27291 12.945 9.28127 12.4912 10.4302C11.2669 10.5977 10.1087 11.0865 9.13447 11.8466C8.1602 12.6068 7.40453 13.6114 6.94425 14.7582C6.48397 15.905 6.33548 17.1532 6.51388 18.3761C6.69229 19.5989 7.19121 20.7526 7.95997 21.7202C7.58483 22.6395 7.40956 23.6281 7.4458 24.6204C7.48204 25.6126 7.72897 26.5858 8.17017 27.4753C8.61138 28.3649 9.23678 29.1503 10.0048 29.7796C10.7729 30.4089 11.666 30.8675 12.625 31.1252C13.2193 31.2878 13.8325 31.3719 14.4487 31.3752C14.7905 31.3747 15.1319 31.3492 15.47 31.2989C16.2276 32.2743 17.2298 33.0318 18.3749 33.4947C19.5199 33.9576 20.767 34.1092 21.9896 33.9343C23.2122 33.7594 24.3668 33.2641 25.3361 32.4987C26.3054 31.7333 27.055 30.7251 27.5087 29.5764C28.733 29.4088 29.8912 28.9201 30.8655 28.1599C31.8397 27.3997 32.5954 26.3952 33.0557 25.2484C33.516 24.1015 33.6645 22.8533 33.4861 21.6305C33.3077 20.4077 32.8087 19.2539 32.04 18.2864V18.2802ZM26.8562 10.8039C28.1163 11.1408 29.1949 11.9567 29.8619 13.0776C30.5288 14.1986 30.7313 15.5357 30.4262 16.8039C30.3075 16.7244 30.1862 16.649 30.0625 16.5777L24.5 13.3602C24.3479 13.2724 24.1755 13.2262 24 13.2262C23.8244 13.2262 23.652 13.2724 23.5 13.3602L18 16.5364V14.2264L23.0625 11.3039C23.6304 10.974 24.2581 10.76 24.9093 10.6742C25.5605 10.5883 26.2222 10.6324 26.8562 10.8039ZM22 21.1552L20 22.3102L18 21.1552V18.8452L20 17.6902L22 18.8452V21.1552ZM14 13.0002C14.0004 12.0227 14.2874 11.0667 14.8254 10.2506C15.3634 9.43448 16.1288 8.79395 17.027 8.40824C17.9252 8.02253 18.9167 7.90855 19.879 8.0804C20.8413 8.25225 21.7321 8.70239 22.4412 9.37515C22.3162 9.4389 22.1912 9.50015 22.0662 9.57765L16.5 12.7839C16.3481 12.8716 16.222 12.9977 16.1342 13.1495C16.0464 13.3013 16.0001 13.4735 16 13.6489V20.0002L14 18.8452V13.0002ZM9.10747 14.8664C9.7446 13.7552 10.7862 12.9331 12.015 12.5714C12.0056 12.7141 12.0006 12.8571 12 13.0002V19.4227C11.9999 19.5982 12.0461 19.7707 12.1339 19.9228C12.2217 20.0748 12.3479 20.2011 12.5 20.2889L18 23.4639L16 24.6252L10.9375 21.6964C9.7891 21.0333 8.95116 19.9413 8.60797 18.6604C8.26478 17.3795 8.44446 16.0148 9.10747 14.8664ZM13.1437 29.1964C11.8836 28.8595 10.805 28.0436 10.1381 26.9227C9.47112 25.8017 9.2686 24.4646 9.57372 23.1964C9.69247 23.2752 9.81247 23.3514 9.93747 23.4227L15.5 26.6402C15.652 26.7279 15.8244 26.7741 16 26.7741C16.1755 26.7741 16.3479 26.7279 16.5 26.6402L22 23.4639V25.7739L16.9375 28.6964C16.3695 29.0263 15.7418 29.2403 15.0906 29.3262C14.4395 29.412 13.7777 29.3679 13.1437 29.1964ZM26 27.0002C26.0005 27.9779 25.7143 28.9344 25.1769 29.7512C24.6394 30.568 23.8742 31.2094 22.976 31.5958C22.0779 31.9822 21.0861 32.0968 20.1235 31.9254C19.1608 31.754 18.2696 31.3041 17.56 30.6314C17.685 30.5677 17.81 30.5002 17.935 30.4277L23.5 27.2164C23.6518 27.1287 23.778 27.0026 23.8657 26.8508C23.9535 26.699 23.9998 26.5268 24 26.3514V20.0002L26 21.1552V27.0002ZM30.8925 25.1339C30.2553 26.2451 29.2137 27.0673 27.985 27.4289C27.9937 27.2864 28 27.1439 28 27.0002V20.5777C28 20.4021 27.9538 20.2296 27.866 20.0775C27.7783 19.9255 27.652 19.7992 27.5 19.7114L22 16.5364L24 15.3814L29.0625 18.3039C30.2108 18.967 31.0488 20.059 31.392 21.3399C31.7352 22.6208 31.5555 23.9855 30.8925 25.1339Z" fill="white"/>
</svg>
