<?xml version="1.0" encoding="UTF-8" ?>
<!DOCTYPE svg PUBLIC "-//W3C//DTD SVG 1.1//EN" "http://www.w3.org/Graphics/SVG/1.1/DTD/svg11.dtd">
<svg width="200pt" height="200pt" viewBox="0 0 200 200" version="1.1" xmlns="http://www.w3.org/2000/svg">
<g id="#fbfaffff">
</g>
<g id="#34a853ff">
<path fill="#34a853" opacity="1.00" d=" M 42.21 47.17 C 54.87 42.78 69.38 43.44 81.32 49.70 C 91.28 54.65 99.27 63.21 103.91 73.29 C 107.62 81.66 108.71 90.92 107.82 99.97 C 105.99 102.34 104.42 104.90 102.99 107.53 C 102.75 107.50 102.28 107.44 102.05 107.41 C 94.48 99.38 86.50 91.73 78.61 84.00 C 68.22 73.54 57.62 63.28 47.18 52.86 C 45.64 50.89 43.02 49.59 42.21 47.17 Z" />
<path fill="#34a853" opacity="1.00" d=" M 103.15 108.05 C 115.02 104.18 128.18 104.59 139.65 109.61 C 151.43 114.95 161.05 124.97 165.57 137.12 C 169.72 147.86 169.55 160.01 165.91 170.87 C 164.54 171.26 163.92 169.63 163.01 168.97 C 143.18 149.29 123.64 129.29 103.65 109.79 C 103.52 109.35 103.27 108.48 103.15 108.05 Z" />
</g>
<g id="#fbbe03ff">
<path fill="#fbbe03" opacity="1.00" d=" M 103.91 73.29 C 111.36 55.44 130.70 43.55 149.98 44.40 C 155.23 44.27 160.26 45.87 165.33 46.99 L 165.44 47.78 C 153.19 59.96 140.86 72.06 128.70 84.33 C 120.60 87.70 113.16 92.95 107.82 99.97 C 108.71 90.92 107.62 81.66 103.91 73.29 Z" />
</g>
<g id="#ea4333ff">
<path fill="#ea4333" opacity="1.00" d=" M 46.26 83.26 C 56.76 79.87 68.22 80.73 78.61 84.00 C 86.50 91.73 94.48 99.38 102.05 107.41 C 91.30 104.35 79.43 104.74 69.16 109.26 C 68.55 109.42 67.94 109.57 67.32 109.69 C 50.30 109.34 33.24 109.86 16.23 109.43 C 22.17 97.14 33.11 87.22 46.26 83.26 Z" />
</g>
<g id="#4286f5ff">
<path fill="#4286f5" opacity="1.00" d=" M 128.70 84.33 C 141.78 79.42 157.01 79.98 169.40 86.57 C 178.95 91.53 186.69 99.72 191.32 109.42 C 174.13 109.82 156.87 109.44 139.65 109.61 C 128.18 104.59 115.02 104.18 103.15 108.05 C 103.27 108.48 103.52 109.35 103.65 109.79 C 83.36 130.22 62.92 150.51 42.59 170.90 C 42.36 170.86 41.88 170.76 41.64 170.71 C 35.43 153.43 39.93 132.90 53.05 119.99 C 57.09 115.64 62.22 112.60 67.32 109.69 C 67.94 109.57 68.55 109.42 69.16 109.26 C 79.43 104.74 91.30 104.35 102.05 107.41 C 102.28 107.44 102.75 107.50 102.99 107.53 C 104.42 104.90 105.99 102.34 107.82 99.97 C 113.16 92.95 120.60 87.70 128.70 84.33 Z" />
</g>
</svg>
