<?xml version="1.0" encoding="UTF-8" ?>
<!DOCTYPE svg PUBLIC "-//W3C//DTD SVG 1.1//EN" "http://www.w3.org/Graphics/SVG/1.1/DTD/svg11.dtd">
<svg width="1024pt" height="1024pt" viewBox="0 0 1024 1024" version="1.1" xmlns="http://www.w3.org/2000/svg">
<g id="#e62b53e6">
<path fill="#e62b53" opacity="0.90" d=" M 451.94 319.99 C 472.74 319.98 493.53 320.05 514.33 319.99 L 513.80 320.62 C 513.29 321.38 512.09 322.19 512.73 323.26 C 519.65 339.59 527.15 355.67 534.55 371.79 C 528.24 378.07 522.20 384.64 515.57 390.60 C 509.59 377.83 503.54 365.09 497.66 352.27 C 487.57 351.58 477.23 352.11 467.05 351.93 C 461.96 341.31 457.00 330.63 451.94 319.99 Z" />
</g>
<g id="#99193899">
<path fill="#991938" opacity="0.60" d=" M 514.33 319.99 C 522.45 320.00 530.58 320.00 538.70 319.99 C 543.40 331.09 548.80 341.88 553.82 352.84 C 547.94 358.21 542.67 364.22 536.72 369.53 C 529.09 353.22 521.51 336.89 513.80 320.62 L 514.33 319.99 Z" />
</g>
<g id="#c21549c2">
<path fill="#c21549" opacity="0.76" d=" M 538.70 319.99 C 539.46 320.03 540.96 320.11 541.72 320.15 C 557.02 353.96 573.10 387.44 588.64 421.15 C 610.05 466.89 631.32 512.69 652.67 558.46 C 657.38 568.32 661.78 578.33 666.63 588.12 C 665.75 588.20 664.87 588.27 664.00 588.32 C 657.15 572.53 649.30 557.17 642.22 541.47 C 624.86 504.53 607.56 467.56 590.10 430.67 C 578.23 404.63 565.84 378.82 553.82 352.84 C 548.80 341.88 543.40 331.09 538.70 319.99 Z" />
</g>
<g id="#660c2666">
<path fill="#660c26" opacity="0.40" d=" M 541.72 320.15 C 550.12 319.78 558.59 320.11 567.02 320.02 C 576.44 339.40 585.18 359.10 594.54 378.51 C 598.02 386.53 602.22 394.23 605.47 402.36 C 601.29 405.84 597.73 409.98 593.79 413.71 C 591.62 415.84 588.85 417.83 588.64 421.15 C 573.10 387.44 557.02 353.96 541.72 320.15 Z" />
</g>
<g id="#8f093c99">
<path fill="#8f093c" opacity="0.60" d=" M 567.02 320.02 C 567.71 320.08 569.08 320.20 569.76 320.26 C 574.32 331.38 579.87 342.09 584.81 353.05 C 593.68 372.07 602.57 391.08 611.42 410.11 C 625.84 440.91 640.18 471.76 654.56 502.58 C 668.79 532.98 682.92 563.43 697.12 593.85 C 696.92 594.41 696.52 595.52 696.33 596.08 C 695.39 593.86 694.26 591.72 693.28 589.53 C 685.86 573.41 678.26 557.37 670.64 541.35 C 655.58 508.57 639.93 476.03 624.84 443.24 C 618.20 429.70 612.11 415.89 605.47 402.36 C 602.22 394.23 598.02 386.53 594.54 378.51 C 585.18 359.10 576.44 339.40 567.02 320.02 Z" />
<path fill="#8f093c" opacity="0.60" d=" M 577.19 443.23 C 581.58 439.13 585.59 434.64 590.10 430.67 C 607.56 467.56 624.86 504.53 642.22 541.47 C 637.74 545.56 633.66 550.06 629.22 554.18 C 627.69 555.61 626.45 557.31 625.42 559.12 C 616.07 539.07 606.72 519.01 597.33 498.98 C 589.26 482.07 581.49 465.01 573.46 448.08 C 574.40 446.25 575.65 444.60 577.19 443.23 Z" />
</g>
<g id="#33051333">
<path fill="#330513" opacity="0.20" d=" M 569.76 320.26 C 579.10 319.70 588.50 320.06 597.86 320.06 C 604.05 332.67 609.78 345.52 615.80 358.22 C 620.58 368.85 625.97 379.24 630.37 390.01 C 624.93 395.72 619.19 401.13 613.69 406.78 C 612.76 407.76 612.08 408.94 611.42 410.11 C 602.57 391.08 593.68 372.07 584.81 353.05 C 579.87 342.09 574.32 331.38 569.76 320.26 Z" />
</g>
<g id="#e62d52e6">
<path fill="#e62d52" opacity="0.90" d=" M 448.95 321.03 L 449.68 321.16 C 458.20 339.87 467.31 358.36 475.68 377.11 C 443.50 408.80 411.77 440.96 379.73 472.79 C 379.09 473.03 377.81 473.52 377.17 473.77 C 401.03 422.83 425.05 371.96 448.95 321.03 Z" />
</g>
<g id="#f5195cf5">
<path fill="#f5195c" opacity="0.96" d=" M 512.73 323.26 C 512.09 322.19 513.29 321.38 513.80 320.62 C 521.51 336.89 529.09 353.22 536.72 369.53 C 549.00 395.70 561.24 421.89 573.46 448.08 C 581.49 465.01 589.26 482.07 597.33 498.98 C 596.88 499.92 596.23 500.66 595.37 501.22 C 594.22 497.93 592.58 494.87 590.91 491.83 C 587.31 482.23 581.89 473.46 577.98 463.99 C 576.94 461.39 575.49 458.98 574.23 456.48 C 569.95 447.45 565.86 438.33 561.32 429.43 C 559.90 425.17 557.63 421.29 555.66 417.29 C 548.71 402.08 541.60 386.95 534.55 371.79 C 527.15 355.67 519.65 339.59 512.73 323.26 Z" />
</g>
<g id="#99103999">
<path fill="#991039" opacity="0.60" d=" M 536.72 369.53 C 542.67 364.22 547.94 358.21 553.82 352.84 C 565.84 378.82 578.23 404.63 590.10 430.67 C 585.59 434.64 581.58 439.13 577.19 443.23 C 575.65 444.60 574.40 446.25 573.46 448.08 C 561.24 421.89 549.00 395.70 536.72 369.53 Z" />
</g>
<g id="#e61b56e6">
<path fill="#e61b56" opacity="0.90" d=" M 534.55 371.79 C 541.60 386.95 548.71 402.08 555.66 417.29 C 557.63 421.29 559.90 425.17 561.32 429.43 C 555.72 434.46 550.62 440.02 545.27 445.31 C 544.38 446.20 543.19 446.67 542.11 447.25 C 533.25 428.38 524.39 409.50 515.57 390.60 C 522.20 384.64 528.24 378.07 534.55 371.79 Z" />
<path fill="#e61b56" opacity="0.90" d=" M 475.68 377.11 L 475.79 377.00 C 485.47 397.68 495.17 418.34 504.85 439.02 C 510.05 450.42 515.77 461.68 520.63 473.18 C 519.84 474.50 518.77 475.62 517.76 476.77 C 460.38 534.07 403.09 591.45 345.71 648.75 C 330.40 664.20 314.80 679.40 299.70 695.05 C 290.82 695.06 281.92 695.20 273.05 695.10 C 307.75 621.32 342.40 547.52 377.17 473.77 C 377.81 473.52 379.09 473.03 379.73 472.79 C 411.77 440.96 443.50 408.80 475.68 377.11 Z" />
</g>
<g id="#30021433">
<path fill="#300214" opacity="0.20" d=" M 630.37 390.01 C 631.38 390.99 631.74 392.44 632.39 393.67 C 645.77 422.54 659.31 451.34 672.73 480.19 C 673.16 481.33 673.97 482.43 673.95 483.72 C 667.35 489.87 661.34 496.64 654.56 502.58 C 640.18 471.76 625.84 440.91 611.42 410.11 C 612.08 408.94 612.76 407.76 613.69 406.78 C 619.19 401.13 624.93 395.72 630.37 390.01 Z" />
</g>
<g id="#5f062866">
<path fill="#5f0628" opacity="0.40" d=" M 593.79 413.71 C 597.73 409.98 601.29 405.84 605.47 402.36 C 612.11 415.89 618.20 429.70 624.84 443.24 C 639.93 476.03 655.58 508.57 670.64 541.35 C 664.18 546.55 659.06 553.17 652.67 558.46 C 631.32 512.69 610.05 466.89 588.64 421.15 C 588.85 417.83 591.62 415.84 593.79 413.71 Z" />
</g>
<g id="#e21258e6">
<path fill="#e21258" opacity="0.90" d=" M 545.27 445.31 C 550.62 440.02 555.72 434.46 561.32 429.43 C 565.86 438.33 569.95 447.45 574.23 456.48 C 568.77 461.59 563.54 466.94 558.31 472.28 C 557.33 473.28 555.98 473.75 554.77 474.37 C 550.60 465.30 546.29 456.30 542.11 447.25 C 543.19 446.67 544.38 446.20 545.27 445.31 Z" />
</g>
<g id="#dc0e59e6">
<path fill="#dc0e59" opacity="0.90" d=" M 558.31 472.28 C 563.54 466.94 568.77 461.59 574.23 456.48 C 575.49 458.98 576.94 461.39 577.98 463.99 C 581.89 473.46 587.31 482.23 590.91 491.83 C 584.25 497.75 578.51 504.65 571.67 510.37 C 566.02 498.37 560.44 486.35 554.77 474.37 C 555.98 473.75 557.33 473.28 558.31 472.28 Z" />
</g>
<g id="#e01158e6">
<path fill="#e01158" opacity="0.90" d=" M 520.63 473.18 L 520.79 472.94 C 528.71 490.00 536.73 507.02 544.71 524.05 C 543.11 526.29 541.28 528.36 539.27 530.24 C 523.26 546.24 507.26 562.25 491.24 578.24 C 481.73 587.65 472.50 597.34 462.73 606.47 L 462.26 606.51 C 457.84 597.04 452.96 587.78 448.54 578.31 L 448.07 578.08 C 428.73 616.80 409.73 655.72 390.40 694.44 C 360.17 694.66 329.94 694.97 299.70 695.05 C 314.80 679.40 330.40 664.20 345.71 648.75 C 403.09 591.45 460.38 534.07 517.76 476.77 C 518.77 475.62 519.84 474.50 520.63 473.18 Z" />
</g>
<g id="#2a041433">
<path fill="#2a0414" opacity="0.20" d=" M 654.56 502.58 C 661.34 496.64 667.35 489.87 673.95 483.72 C 675.07 484.44 675.33 485.88 675.98 486.99 C 693.20 524.03 710.53 561.03 727.78 598.07 C 727.83 598.45 727.93 599.23 727.98 599.62 C 722.44 604.88 717.16 610.41 711.70 615.76 C 710.39 616.87 709.96 618.56 709.48 620.14 C 705.33 611.39 701.41 602.53 697.12 593.85 C 682.92 563.43 668.79 532.98 654.56 502.58 Z" />
</g>
<g id="#d40c5be6">
<path fill="#d40c5b" opacity="0.90" d=" M 571.67 510.37 C 578.51 504.65 584.25 497.75 590.91 491.83 C 592.58 494.87 594.22 497.93 595.37 501.22 C 597.78 507.75 601.12 513.87 603.76 520.30 C 606.66 526.84 610.46 532.98 612.86 539.74 C 606.49 545.77 600.60 552.31 594.07 558.17 C 586.60 542.24 579.11 526.31 571.67 510.37 Z" />
</g>
<g id="#da0e62f5">
<path fill="#da0e62" opacity="0.96" d=" M 597.33 498.98 C 606.72 519.01 616.07 539.07 625.42 559.12 C 632.86 574.70 639.97 590.43 647.42 606.01 C 646.79 606.76 646.15 607.50 645.48 608.22 C 641.71 599.46 636.77 591.25 633.15 582.42 C 630.11 575.94 626.85 569.57 624.06 562.98 C 619.89 555.44 616.90 547.34 612.86 539.74 C 610.46 532.98 606.66 526.84 603.76 520.30 C 601.12 513.87 597.78 507.75 595.37 501.22 C 596.23 500.66 596.88 499.92 597.33 498.98 Z" />
</g>
<g id="#d50c5be6">
<path fill="#d50c5b" opacity="0.90" d=" M 544.71 524.05 C 554.72 545.38 564.69 566.74 574.72 588.06 C 573.57 589.74 572.30 591.34 570.83 592.74 C 545.03 618.29 519.56 644.18 493.70 669.67 L 493.25 669.53 C 483.16 648.51 472.65 627.69 462.46 606.72 L 462.73 606.47 C 472.50 597.34 481.73 587.65 491.24 578.24 C 507.26 562.25 523.26 546.24 539.27 530.24 C 541.28 528.36 543.11 526.29 544.71 524.05 Z" />
</g>
<g id="#ca0e5ce6">
<path fill="#ca0e5c" opacity="0.90" d=" M 594.07 558.17 C 600.60 552.31 606.49 545.77 612.86 539.74 C 616.90 547.34 619.89 555.44 624.06 562.98 C 626.85 569.57 630.11 575.94 633.15 582.42 C 627.93 587.47 622.84 592.65 617.73 597.81 C 616.62 598.94 615.21 599.69 613.85 600.46 C 607.30 586.34 600.63 572.29 594.07 558.17 Z" />
</g>
<g id="#7f0c3e99">
<path fill="#7f0c3e" opacity="0.60" d=" M 629.22 554.18 C 633.66 550.06 637.74 545.56 642.22 541.47 C 649.30 557.17 657.15 572.53 664.00 588.32 C 669.54 601.29 675.87 613.92 681.71 626.76 C 678.49 628.39 676.30 631.31 673.76 633.77 C 670.72 636.84 667.48 639.72 664.74 643.08 C 658.93 630.74 653.20 618.36 647.42 606.01 C 639.97 590.43 632.86 574.70 625.42 559.12 C 626.45 557.31 627.69 555.61 629.22 554.18 Z" />
</g>
<g id="#54082966">
<path fill="#540829" opacity="0.40" d=" M 652.67 558.46 C 659.06 553.17 664.18 546.55 670.64 541.35 C 678.26 557.37 685.86 573.41 693.28 589.53 C 687.13 595.16 681.22 601.06 675.59 607.21 C 672.62 600.84 669.71 594.44 666.63 588.12 C 661.78 578.33 657.38 568.32 652.67 558.46 Z" />
</g>
<g id="#c1115de6">
<path fill="#c1115d" opacity="0.90" d=" M 617.73 597.81 C 622.84 592.65 627.93 587.47 633.15 582.42 C 636.77 591.25 641.71 599.46 645.48 608.22 C 645.90 609.73 646.38 611.24 646.93 612.73 C 641.95 617.48 637.07 622.35 632.27 627.29 C 631.02 628.61 629.46 629.54 627.92 630.47 C 623.25 620.46 618.56 610.46 613.85 600.46 C 615.21 599.69 616.62 598.94 617.73 597.81 Z" />
</g>
<g id="#c70f5ce6">
<path fill="#c70f5c" opacity="0.90" d=" M 574.72 588.06 C 584.05 608.00 593.41 627.94 602.73 647.88 C 589.94 660.38 577.41 673.13 564.73 685.74 C 561.68 688.86 558.40 691.78 555.70 695.24 C 539.13 695.24 522.57 695.27 506.00 695.23 C 501.82 686.78 497.63 678.33 493.52 669.84 L 493.70 669.67 C 519.56 644.18 545.03 618.29 570.83 592.74 C 572.30 591.34 573.57 589.74 574.72 588.06 Z" />
</g>
<g id="#8d124dbb">
<path fill="#8d124d" opacity="0.73" d=" M 664.00 588.32 C 664.87 588.27 665.75 588.20 666.63 588.12 C 669.71 594.44 672.62 600.84 675.59 607.21 C 682.69 622.28 689.65 637.41 696.73 652.50 C 703.28 666.67 710.02 680.77 716.44 695.01 C 715.81 695.00 714.55 695.00 713.92 694.99 C 702.99 672.34 692.39 649.52 681.71 626.76 C 675.87 613.92 669.54 601.29 664.00 588.32 Z" />
</g>
<g id="#4e0a2a66">
<path fill="#4e0a2a" opacity="0.40" d=" M 675.59 607.21 C 681.22 601.06 687.13 595.16 693.28 589.53 C 694.26 591.72 695.39 593.86 696.33 596.08 C 702.03 609.33 708.64 622.19 714.47 635.39 C 708.20 640.71 702.89 647.06 696.73 652.50 C 689.65 637.41 682.69 622.28 675.59 607.21 Z" />
</g>
<g id="#71103f99">
<path fill="#71103f" opacity="0.60" d=" M 697.12 593.85 C 701.41 602.53 705.33 611.39 709.48 620.14 C 721.13 645.04 732.69 669.99 744.36 694.89 C 743.83 694.88 742.77 694.87 742.24 694.86 C 739.79 687.96 735.85 681.72 733.16 674.91 C 726.74 661.83 720.94 648.45 714.47 635.39 C 708.64 622.19 702.03 609.33 696.33 596.08 C 696.52 595.52 696.92 594.41 697.12 593.85 Z" />
<path fill="#71103f" opacity="0.60" d=" M 673.76 633.77 C 676.30 631.31 678.49 628.39 681.71 626.76 C 692.39 649.52 702.99 672.34 713.92 694.99 C 705.67 694.96 697.43 695.00 689.19 694.99 C 684.79 686.06 680.78 676.94 676.45 667.97 C 672.42 659.74 668.69 651.36 664.74 643.08 C 667.48 639.72 670.72 636.84 673.76 633.77 Z" />
</g>
<g id="#24051533">
<path fill="#240515" opacity="0.20" d=" M 711.70 615.76 C 717.16 610.41 722.44 604.88 727.98 599.62 C 729.17 600.31 729.43 601.81 730.08 602.94 C 744.32 633.57 758.70 664.15 772.88 694.82 C 763.38 695.13 753.85 695.02 744.36 694.89 C 732.69 669.99 721.13 645.04 709.48 620.14 C 709.96 618.56 710.39 616.87 711.70 615.76 Z" />
</g>
<g id="#c21764f5">
<path fill="#c21764" opacity="0.96" d=" M 647.42 606.01 C 653.20 618.36 658.93 630.74 664.74 643.08 C 668.69 651.36 672.42 659.74 676.45 667.97 C 676.10 668.56 675.39 669.73 675.03 670.31 C 671.33 666.07 669.99 660.48 667.37 655.62 C 664.31 649.80 661.53 643.84 658.88 637.82 C 654.65 629.57 651.19 620.96 646.93 612.73 C 646.38 611.24 645.90 609.73 645.48 608.22 C 646.15 607.50 646.79 606.76 647.42 606.01 Z" />
</g>
<g id="#b9135ee6">
<path fill="#b9135e" opacity="0.90" d=" M 632.27 627.29 C 637.07 622.35 641.95 617.48 646.93 612.73 C 651.19 620.96 654.65 629.57 658.88 637.82 C 652.35 643.72 646.52 650.35 640.03 656.28 C 635.98 647.68 631.97 639.07 627.92 630.47 C 629.46 629.54 631.02 628.61 632.27 627.29 Z" />
</g>
<g id="#480b2a66">
<path fill="#480b2a" opacity="0.40" d=" M 696.73 652.50 C 702.89 647.06 708.20 640.71 714.47 635.39 C 720.94 648.45 726.74 661.83 733.16 674.91 C 735.85 681.72 739.79 687.96 742.24 694.86 C 733.66 695.17 725.04 694.89 716.44 695.01 C 710.02 680.77 703.28 666.67 696.73 652.50 Z" />
</g>
<g id="#ae175fe6">
<path fill="#ae175f" opacity="0.90" d=" M 640.03 656.28 C 646.52 650.35 652.35 643.72 658.88 637.82 C 661.53 643.84 664.31 649.80 667.37 655.62 C 669.99 660.48 671.33 666.07 675.03 670.31 C 675.39 669.73 676.10 668.56 676.45 667.97 C 680.78 676.94 684.79 686.06 689.19 694.99 C 678.85 694.98 668.51 694.99 658.17 694.98 C 652.10 682.09 646.06 669.19 640.03 656.28 Z" />
</g>
<g id="#ba135de6">
<path fill="#ba135d" opacity="0.90" d=" M 602.73 647.88 C 610.09 663.54 617.44 679.20 624.73 694.89 L 624.48 695.45 C 601.59 694.97 578.62 695.40 555.70 695.24 C 558.40 691.78 561.68 688.86 564.73 685.74 C 577.41 673.13 589.94 660.38 602.73 647.88 Z" />
</g>
</svg>
